<svg width="24" height="25" viewBox="0 0 24 25" fill="none" xmlns="http://www.w3.org/2000/svg">
<path d="M23.5293 12.5502C23.2393 12.2602 22.7593 12.2602 22.4693 12.5502L22.0093 13.0102V12.5002C22.0093 6.98023 17.5193 2.49023 11.9993 2.49023C8.94927 2.49023 6.09927 3.86023 4.18927 6.24023C3.92927 6.56023 3.97927 7.04023 4.30927 7.30023C4.62927 7.55023 5.09927 7.50023 5.35927 7.18023C6.98927 5.15023 9.40927 3.99023 11.9993 3.99023C16.6893 3.99023 20.5093 7.81023 20.5093 12.5002V13.0002L20.0493 12.5402C19.7593 12.2502 19.2793 12.2502 18.9893 12.5402C18.6993 12.8302 18.6993 13.3102 18.9893 13.6002L20.7293 15.3402C20.7993 15.4102 20.8793 15.4602 20.9693 15.5002C21.0593 15.5402 21.1593 15.5602 21.2593 15.5602C21.3593 15.5602 21.4493 15.5402 21.5493 15.5002C21.6393 15.4602 21.7193 15.4102 21.7893 15.3402L23.5293 13.6002C23.8193 13.3202 23.8193 12.8402 23.5293 12.5502Z" fill="white"/>
<path d="M19.6875 17.6997C19.3675 17.4397 18.8875 17.4897 18.6375 17.8197C17.0075 19.8497 14.5875 21.0097 11.9975 21.0097C7.3075 21.0097 3.4875 17.1897 3.4875 12.4997V11.9997L3.9475 12.4597C4.0975 12.6097 4.2875 12.6797 4.4775 12.6797C4.6675 12.6797 4.8575 12.5997 4.9975 12.4497C5.2875 12.1597 5.2875 11.6797 4.9975 11.3897L3.2675 9.64969C3.1975 9.58969 3.1075 9.52969 3.0175 9.48969C2.8375 9.40969 2.6275 9.40969 2.4475 9.48969C2.3575 9.52969 2.2775 9.58969 2.2075 9.64969L0.4675 11.3897C0.1775 11.6797 0.1775 12.1597 0.4675 12.4497C0.7575 12.7397 1.2375 12.7397 1.5275 12.4497L1.9875 11.9897V12.4997C1.9875 18.0197 6.4775 22.5097 11.9975 22.5097C15.0475 22.5097 17.8975 21.1397 19.8075 18.7597C20.0675 18.4397 20.0175 17.9597 19.6875 17.6997Z" fill="white"/>
</svg>
