<svg width="343" height="268" viewBox="0 0 343 268" fill="none" xmlns="http://www.w3.org/2000/svg">
<path d="M135.851 18.296C135.899 18.808 135.947 19.312 135.995 19.808C136.043 20.288 136.091 20.768 136.139 21.248C136.171 21.536 136.195 21.824 136.211 22.112C136.227 22.4 136.227 22.68 136.211 22.952C136.195 23.64 135.907 24.232 135.347 24.728C134.979 25.08 134.563 25.264 134.099 25.28C133.651 25.296 133.227 25.144 132.827 24.824C132.091 24.2 131.723 23.408 131.723 22.448C131.723 21.872 131.731 21.296 131.747 20.72C131.763 20.144 131.779 19.568 131.795 18.992V18.152C131.587 18.104 131.379 18.048 131.171 17.984C130.979 17.92 130.803 17.84 130.643 17.744C130.499 17.632 130.379 17.496 130.283 17.336C130.203 17.16 130.171 16.944 130.187 16.688C130.203 16.192 130.371 15.856 130.691 15.68C131.011 15.504 131.371 15.376 131.771 15.296C131.787 15.232 131.803 15.184 131.819 15.152C131.835 15.104 131.843 15.056 131.843 15.008C131.843 14.064 131.851 13.128 131.867 12.2C131.883 11.256 131.867 10.312 131.819 9.368C131.787 8.568 131.971 7.912 132.371 7.4C132.771 6.872 133.355 6.528 134.123 6.368C134.843 6.208 135.563 6.12 136.283 6.104C137.003 6.072 137.723 6.08 138.443 6.128C138.811 6.144 139.171 6.176 139.523 6.224C139.875 6.272 140.235 6.32 140.603 6.368C140.699 6.368 140.827 6.384 140.987 6.416C141.451 6.544 141.827 6.76 142.115 7.064C142.403 7.352 142.563 7.688 142.595 8.072C142.627 8.472 142.531 8.832 142.307 9.152C142.099 9.472 141.763 9.728 141.299 9.92C140.739 10.176 140.171 10.352 139.595 10.448C139.019 10.544 138.427 10.632 137.819 10.712C137.467 10.744 137.115 10.776 136.763 10.808C136.427 10.824 136.075 10.848 135.707 10.88C135.627 11.536 135.603 12.184 135.635 12.824C135.667 13.464 135.691 14.128 135.707 14.816C136.043 14.784 136.363 14.76 136.667 14.744C136.987 14.712 137.299 14.696 137.603 14.696C137.971 14.696 138.339 14.696 138.707 14.696C139.091 14.68 139.467 14.704 139.835 14.768C140.331 14.848 140.707 15.024 140.963 15.296C141.219 15.568 141.363 15.888 141.395 16.256C141.427 16.608 141.331 16.928 141.107 17.216C140.883 17.504 140.539 17.728 140.075 17.888C139.851 17.968 139.619 18.032 139.379 18.08C139.155 18.112 138.931 18.144 138.707 18.176C138.371 18.208 138.035 18.224 137.699 18.224C137.363 18.208 137.019 18.208 136.667 18.224C136.459 18.224 136.187 18.248 135.851 18.296ZM147.164 15.152C147.324 15.728 147.66 16.128 148.172 16.352C149.42 16.912 150.572 16.792 151.628 15.992C151.756 15.896 151.876 15.8 151.988 15.704C152.1 15.608 152.22 15.52 152.348 15.44C152.86 15.12 153.324 15.12 153.74 15.44C154.156 15.744 154.284 16.192 154.124 16.784C153.932 17.456 153.604 18.008 153.14 18.44C151.668 19.832 149.988 20.28 148.1 19.784C146.66 19.416 145.532 18.728 144.716 17.72C143.916 16.712 143.476 15.456 143.396 13.952C143.348 13.184 143.404 12.44 143.564 11.72C143.74 11 144.012 10.304 144.38 9.632C144.668 9.072 145.044 8.584 145.508 8.168C145.972 7.736 146.484 7.392 147.044 7.136C147.604 6.864 148.188 6.688 148.796 6.608C149.42 6.528 150.036 6.56 150.644 6.704C151.46 6.88 152.14 7.208 152.684 7.688C153.244 8.168 153.644 8.808 153.884 9.608C154.076 10.248 154.116 10.856 154.004 11.432C153.908 11.992 153.7 12.512 153.38 12.992C153.06 13.456 152.652 13.864 152.156 14.216C151.676 14.568 151.156 14.848 150.596 15.056C150.036 15.248 149.46 15.36 148.868 15.392C148.276 15.424 147.708 15.344 147.164 15.152ZM148.988 9.872C148.38 10.112 147.996 10.416 147.836 10.784C147.676 11.136 147.66 11.456 147.788 11.744C147.932 12.016 148.188 12.216 148.556 12.344C148.924 12.456 149.348 12.392 149.828 12.152C150.196 11.96 150.452 11.712 150.596 11.408C150.756 11.104 150.796 10.824 150.716 10.568C150.652 10.296 150.468 10.088 150.164 9.944C149.876 9.784 149.484 9.76 148.988 9.872ZM158.821 15.152C158.981 15.728 159.317 16.128 159.829 16.352C161.077 16.912 162.229 16.792 163.285 15.992C163.413 15.896 163.533 15.8 163.645 15.704C163.757 15.608 163.877 15.52 164.005 15.44C164.517 15.12 164.981 15.12 165.397 15.44C165.813 15.744 165.941 16.192 165.781 16.784C165.589 17.456 165.261 18.008 164.797 18.44C163.325 19.832 161.645 20.28 159.757 19.784C158.317 19.416 157.189 18.728 156.373 17.72C155.573 16.712 155.133 15.456 155.053 13.952C155.005 13.184 155.061 12.44 155.221 11.72C155.397 11 155.669 10.304 156.037 9.632C156.325 9.072 156.701 8.584 157.165 8.168C157.629 7.736 158.141 7.392 158.701 7.136C159.261 6.864 159.845 6.688 160.453 6.608C161.077 6.528 161.693 6.56 162.301 6.704C163.117 6.88 163.797 7.208 164.341 7.688C164.901 8.168 165.301 8.808 165.541 9.608C165.733 10.248 165.773 10.856 165.661 11.432C165.565 11.992 165.357 12.512 165.037 12.992C164.717 13.456 164.309 13.864 163.813 14.216C163.333 14.568 162.813 14.848 162.253 15.056C161.693 15.248 161.117 15.36 160.525 15.392C159.933 15.424 159.365 15.344 158.821 15.152ZM160.645 9.872C160.037 10.112 159.653 10.416 159.493 10.784C159.333 11.136 159.317 11.456 159.445 11.744C159.589 12.016 159.845 12.216 160.213 12.344C160.581 12.456 161.005 12.392 161.485 12.152C161.853 11.96 162.109 11.712 162.253 11.408C162.413 11.104 162.453 10.824 162.373 10.568C162.309 10.296 162.125 10.088 161.821 9.944C161.533 9.784 161.141 9.76 160.645 9.872ZM166.975 4.592C166.975 4.32 166.999 4.048 167.047 3.776C167.127 3.392 167.287 3.064 167.527 2.792C167.783 2.52 168.087 2.352 168.439 2.288C169.287 2.144 169.927 2.416 170.359 3.104C170.487 3.312 170.591 3.528 170.671 3.752C170.767 3.96 170.847 4.176 170.911 4.4C171.167 5.312 171.359 6.232 171.487 7.16C171.615 8.072 171.719 9 171.799 9.944C171.879 11.048 171.951 12.144 172.015 13.232C172.079 14.32 172.151 15.416 172.231 16.52C172.295 17.496 172.119 18.44 171.703 19.352C171.543 19.688 171.327 19.944 171.055 20.12C170.799 20.312 170.527 20.424 170.239 20.456C169.951 20.488 169.655 20.44 169.351 20.312C169.063 20.184 168.807 19.976 168.583 19.688C168.311 19.352 168.087 18.992 167.911 18.608C167.735 18.224 167.631 17.816 167.599 17.384C167.551 16.872 167.503 16.352 167.455 15.824C167.423 15.296 167.391 14.768 167.359 14.24C167.247 12.496 167.135 10.84 167.023 9.272C166.927 7.704 166.911 6.144 166.975 4.592ZM173.807 10.904C173.823 10.216 173.991 9.712 174.311 9.392C174.631 9.072 174.983 8.912 175.367 8.912C175.767 8.912 176.143 9.064 176.495 9.368C176.863 9.672 177.095 10.096 177.191 10.64C177.303 11.184 177.415 11.848 177.527 12.632C177.639 13.416 177.711 14.216 177.743 15.032C177.791 15.848 177.775 16.632 177.695 17.384C177.615 18.136 177.447 18.752 177.191 19.232C176.999 19.536 176.775 19.768 176.519 19.928C176.279 20.088 176.023 20.168 175.751 20.168C175.479 20.168 175.215 20.096 174.959 19.952C174.703 19.792 174.479 19.56 174.287 19.256C174.063 18.888 173.903 18.512 173.807 18.128C173.727 17.728 173.687 17.32 173.687 16.904C173.719 15.848 173.735 14.84 173.735 13.88C173.751 12.904 173.775 11.912 173.807 10.904ZM175.055 4.4C175.567 4.4 175.991 4.576 176.327 4.928C176.679 5.28 176.847 5.712 176.831 6.224C176.831 6.72 176.647 7.144 176.279 7.496C175.927 7.848 175.503 8.024 175.007 8.024C174.511 8.008 174.087 7.816 173.735 7.448C173.383 7.08 173.207 6.656 173.207 6.176C173.223 5.664 173.407 5.24 173.759 4.904C174.127 4.552 174.559 4.384 175.055 4.4ZM182.76 7.76C182.936 7.6 183.096 7.456 183.24 7.328C183.4 7.184 183.552 7.048 183.696 6.92C184.24 6.488 184.824 6.176 185.448 5.984C186.088 5.776 186.72 5.696 187.344 5.744C187.984 5.792 188.6 5.96 189.192 6.248C189.8 6.52 190.336 6.912 190.8 7.424C191.264 7.936 191.616 8.496 191.856 9.104C192.096 9.696 192.272 10.328 192.384 11C192.56 11.976 192.64 12.952 192.624 13.928C192.608 14.888 192.56 15.856 192.48 16.832C192.464 17.008 192.448 17.184 192.432 17.36C192.432 17.536 192.416 17.712 192.384 17.888C192.32 18.576 192.024 19.184 191.496 19.712C190.984 20.192 190.424 20.4 189.816 20.336C189.224 20.288 188.72 19.984 188.304 19.424C187.888 18.816 187.704 18.16 187.752 17.456C187.784 16.688 187.816 15.936 187.848 15.2C187.88 14.464 187.912 13.712 187.944 12.944C187.96 12.624 187.96 12.304 187.944 11.984C187.944 11.648 187.928 11.32 187.896 11C187.864 10.728 187.8 10.472 187.704 10.232C187.624 9.992 187.432 9.824 187.128 9.728C186.84 9.632 186.552 9.648 186.264 9.776C185.992 9.888 185.728 10.064 185.472 10.304C185.232 10.544 185.008 10.832 184.8 11.168C184.592 11.504 184.408 11.848 184.248 12.2C184.104 12.536 183.992 12.872 183.912 13.208C183.848 13.528 183.824 13.792 183.84 14C183.856 14.416 183.872 14.752 183.888 15.008C183.904 15.264 183.92 15.504 183.936 15.728C183.968 15.936 183.992 16.168 184.008 16.424C184.04 16.68 184.072 17.016 184.104 17.432C184.136 17.928 184.088 18.384 183.96 18.8C183.832 19.216 183.56 19.584 183.144 19.904C182.744 20.208 182.336 20.36 181.92 20.36C181.504 20.376 181.12 20.28 180.768 20.072C180.416 19.864 180.112 19.584 179.856 19.232C179.6 18.864 179.432 18.456 179.352 18.008C179.192 17.224 179.104 16.44 179.088 15.656C179.072 14.856 179.088 14.056 179.136 13.256C179.2 12.44 179.28 11.632 179.376 10.832C179.472 10.016 179.544 9.2 179.592 8.384C179.608 8.256 179.624 8.136 179.64 8.024C179.672 7.896 179.712 7.768 179.76 7.64C179.856 7.384 180 7.176 180.192 7.016C180.4 6.84 180.624 6.728 180.864 6.68C181.104 6.632 181.344 6.648 181.584 6.728C181.84 6.792 182.064 6.928 182.256 7.136C182.352 7.216 182.432 7.312 182.496 7.424C182.576 7.52 182.664 7.632 182.76 7.76ZM203.51 17.84C203.238 17.92 202.99 18 202.766 18.08C202.542 18.144 202.318 18.216 202.094 18.296C201.55 18.472 200.958 18.576 200.318 18.608C199.678 18.64 199.03 18.576 198.374 18.416C197.718 18.24 197.078 17.968 196.454 17.6C195.846 17.216 195.302 16.712 194.822 16.088C194.198 15.272 193.838 14.432 193.742 13.568C193.662 12.704 193.798 11.816 194.15 10.904C194.71 9.448 195.526 8.336 196.598 7.568C197.67 6.8 198.966 6.312 200.486 6.104C201.03 6.04 201.646 6.048 202.334 6.128C203.038 6.208 203.71 6.376 204.35 6.632C205.006 6.872 205.582 7.2 206.078 7.616C206.59 8.032 206.926 8.536 207.086 9.128C207.278 9.832 207.422 10.536 207.518 11.24C207.614 11.928 207.678 12.632 207.71 13.352C207.758 14.456 207.75 15.544 207.686 16.616C207.622 17.688 207.478 18.76 207.254 19.832C207.062 20.696 206.75 21.472 206.318 22.16C205.886 22.864 205.342 23.496 204.686 24.056C204.206 24.488 203.678 24.808 203.102 25.016C202.526 25.224 201.918 25.368 201.278 25.448C200.366 25.56 199.486 25.504 198.638 25.28C197.79 25.056 196.982 24.688 196.214 24.176C195.606 23.76 195.118 23.272 194.75 22.712C194.398 22.152 194.19 21.496 194.126 20.744C194.078 20.392 194.102 20.072 194.198 19.784C194.262 19.544 194.366 19.352 194.51 19.208C194.654 19.048 194.822 18.936 195.014 18.872C195.206 18.808 195.398 18.8 195.59 18.848C195.798 18.88 195.998 18.976 196.19 19.136C196.606 19.488 196.95 19.88 197.222 20.312C197.43 20.648 197.686 20.92 197.99 21.128C198.294 21.352 198.622 21.504 198.974 21.584C199.342 21.68 199.726 21.704 200.126 21.656C200.526 21.624 200.926 21.52 201.326 21.344C201.55 21.232 201.718 21.12 201.83 21.008C202.294 20.592 202.654 20.12 202.91 19.592C203.166 19.064 203.366 18.48 203.51 17.84ZM200.174 10.304C199.87 10.432 199.566 10.648 199.262 10.952C198.958 11.24 198.71 11.576 198.518 11.96C198.326 12.328 198.214 12.704 198.182 13.088C198.15 13.456 198.246 13.776 198.47 14.048C198.822 14.464 199.214 14.736 199.646 14.864C200.094 14.992 200.574 15.008 201.086 14.912C201.566 14.816 202.038 14.712 202.502 14.6C202.982 14.488 203.462 14.376 203.942 14.264C203.99 14.056 204.014 13.736 204.014 13.304C204.03 12.872 204.022 12.416 203.99 11.936C203.958 11.344 203.838 10.888 203.63 10.568C203.422 10.248 203.142 10.04 202.79 9.944C202.454 9.832 202.062 9.816 201.614 9.896C201.166 9.96 200.686 10.096 200.174 10.304ZM210.404 19.64C209.924 19.64 209.524 19.48 209.204 19.16C208.884 18.824 208.732 18.424 208.748 17.96C208.764 17.496 208.932 17.104 209.252 16.784C209.572 16.464 209.964 16.312 210.428 16.328C210.876 16.328 211.268 16.496 211.604 16.832C211.94 17.152 212.1 17.544 212.084 18.008C212.068 18.472 211.9 18.864 211.58 19.184C211.26 19.488 210.868 19.64 210.404 19.64ZM214.632 19.64C214.152 19.64 213.752 19.48 213.432 19.16C213.112 18.824 212.96 18.424 212.976 17.96C212.992 17.496 213.16 17.104 213.48 16.784C213.8 16.464 214.192 16.312 214.656 16.328C215.104 16.328 215.496 16.496 215.832 16.832C216.168 17.152 216.328 17.544 216.312 18.008C216.296 18.472 216.128 18.864 215.808 19.184C215.488 19.488 215.096 19.64 214.632 19.64ZM218.86 19.64C218.38 19.64 217.98 19.48 217.66 19.16C217.34 18.824 217.188 18.424 217.204 17.96C217.22 17.496 217.388 17.104 217.708 16.784C218.028 16.464 218.42 16.312 218.884 16.328C219.332 16.328 219.724 16.496 220.06 16.832C220.396 17.152 220.556 17.544 220.54 18.008C220.524 18.472 220.356 18.864 220.036 19.184C219.716 19.488 219.324 19.64 218.86 19.64Z" fill="black"/>
<path d="M49.987 103.805C48.9603 104.978 48.007 105.895 47.127 106.555C45.2203 108.315 43.2036 109.818 41.077 111.065C39.0236 112.311 36.7136 113.228 34.147 113.815C30.187 114.621 26.337 114.548 22.597 113.595C18.857 112.568 15.5203 110.881 12.587 108.535C9.72695 106.115 7.41695 103.181 5.65695 99.7345C3.97029 96.2879 3.16362 92.5479 3.23695 88.5145C3.31029 83.0145 4.30029 77.9179 6.20695 73.2245C8.18695 68.4579 10.8636 64.3512 14.237 60.9045C17.6103 57.4579 21.607 54.8545 26.227 53.0945C30.9203 51.2612 36.0536 50.5279 41.627 50.8945C43.0936 51.0412 44.5236 51.3345 45.917 51.7745C47.3836 52.2145 48.8136 52.8012 50.207 53.5345C51.087 53.9745 51.8936 54.3045 52.627 54.5245C53.4336 54.6712 54.3503 54.6345 55.377 54.4145C57.5036 53.8279 59.447 54.0845 61.207 55.1845C62.967 56.2112 64.1403 57.7512 64.727 59.8045C65.2403 61.4179 65.497 63.2512 65.497 65.3045C65.5703 68.6045 65.5703 71.8679 65.497 75.0945C65.4236 78.2479 65.4236 81.4745 65.497 84.7745C65.5703 88.0012 65.7903 91.1545 66.157 94.2345C66.5236 97.3145 67.367 100.321 68.687 103.255C69.2736 104.575 69.4936 106.041 69.347 107.655C69.127 110.881 67.4403 113.118 64.287 114.365C61.3536 115.538 58.677 115.098 56.257 113.045C55.5236 112.385 54.8636 111.688 54.277 110.955C53.7636 110.148 53.2136 109.341 52.627 108.535C52.187 107.801 51.747 107.068 51.307 106.335C50.9403 105.528 50.5003 104.685 49.987 103.805ZM32.937 72.5645C29.637 74.2512 27.217 76.5612 25.677 79.4945C24.137 82.4279 23.477 86.2045 23.697 90.8245C23.7703 93.3912 24.467 95.1879 25.787 96.2145C27.1803 97.2412 28.757 97.7179 30.517 97.6445C32.277 97.4979 34.037 96.9479 35.797 95.9945C37.557 95.0412 38.9136 93.8679 39.867 92.4745C41.3336 90.4212 42.5436 88.5145 43.497 86.7545C44.5236 84.9212 45.4403 83.0512 46.247 81.1445C47.567 77.6979 47.9336 75.1679 47.347 73.5545C46.7603 71.8679 45.697 70.8045 44.157 70.3645C42.617 69.9245 40.7836 69.9612 38.657 70.4745C36.6036 70.9879 34.697 71.6845 32.937 72.5645ZM93.3725 58.0445C94.1792 57.3112 94.9125 56.6512 95.5725 56.0645C96.3058 55.4045 97.0025 54.7812 97.6625 54.1945C100.156 52.2145 102.833 50.7845 105.693 49.9045C108.626 48.9512 111.523 48.5845 114.383 48.8045C117.316 49.0245 120.139 49.7945 122.853 51.1145C125.639 52.3612 128.096 54.1579 130.223 56.5045C132.349 58.8512 133.963 61.4179 135.063 64.2045C136.163 66.9179 136.969 69.8145 137.483 72.8945C138.289 77.3679 138.656 81.8412 138.583 86.3145C138.509 90.7145 138.289 95.1512 137.923 99.6245C137.849 100.431 137.776 101.238 137.703 102.045C137.703 102.851 137.629 103.658 137.483 104.465C137.189 107.618 135.833 110.405 133.413 112.825C131.066 115.025 128.499 115.978 125.713 115.685C122.999 115.465 120.689 114.071 118.783 111.505C116.876 108.718 116.033 105.711 116.253 102.485C116.399 98.9645 116.546 95.5179 116.693 92.1445C116.839 88.7712 116.986 85.3245 117.133 81.8045C117.206 80.3379 117.206 78.8712 117.133 77.4045C117.133 75.8645 117.059 74.3612 116.913 72.8945C116.766 71.6479 116.473 70.4745 116.033 69.3745C115.666 68.2745 114.786 67.5045 113.393 67.0645C112.073 66.6245 110.753 66.6979 109.433 67.2845C108.186 67.7979 106.976 68.6045 105.803 69.7045C104.703 70.8045 103.676 72.1245 102.723 73.6645C101.769 75.2045 100.926 76.7812 100.193 78.3945C99.5325 79.9345 99.0192 81.4745 98.6525 83.0145C98.3592 84.4812 98.2492 85.6912 98.3225 86.6445C98.3958 88.5512 98.4692 90.0912 98.5425 91.2645C98.6158 92.4379 98.6892 93.5379 98.7625 94.5645C98.9092 95.5179 99.0192 96.5812 99.0925 97.7545C99.2392 98.9279 99.3858 100.468 99.5325 102.375C99.6792 104.648 99.4592 106.738 98.8725 108.645C98.2858 110.551 97.0392 112.238 95.1325 113.705C93.2992 115.098 91.4292 115.795 89.5225 115.795C87.6158 115.868 85.8558 115.428 84.2425 114.475C82.6292 113.521 81.2358 112.238 80.0625 110.625C78.8892 108.938 78.1192 107.068 77.7525 105.015C77.0192 101.421 76.6158 97.8279 76.5425 94.2345C76.4692 90.5679 76.5425 86.9012 76.7625 83.2345C77.0558 79.4945 77.4225 75.7912 77.8625 72.1245C78.3025 68.3845 78.6325 64.6445 78.8525 60.9045C78.9258 60.3179 78.9992 59.7679 79.0725 59.2545C79.2192 58.6679 79.4025 58.0812 79.6225 57.4945C80.0625 56.3212 80.7225 55.3679 81.6025 54.6345C82.5558 53.8279 83.5825 53.3145 84.6825 53.0945C85.7825 52.8745 86.8825 52.9479 87.9825 53.3145C89.1558 53.6079 90.1825 54.2312 91.0625 55.1845C91.5025 55.5512 91.8692 55.9912 92.1625 56.5045C92.5292 56.9445 92.9325 57.4579 93.3725 58.0445ZM191.224 104.245C189.977 104.611 188.84 104.978 187.814 105.345C186.787 105.638 185.76 105.968 184.734 106.335C182.24 107.141 179.527 107.618 176.594 107.765C173.66 107.911 170.69 107.618 167.684 106.885C164.677 106.078 161.744 104.831 158.884 103.145C156.097 101.385 153.604 99.0745 151.404 96.2145C148.544 92.4745 146.894 88.6245 146.454 84.6645C146.087 80.7045 146.71 76.6345 148.324 72.4545C150.89 65.7812 154.63 60.6845 159.544 57.1645C164.457 53.6445 170.397 51.4079 177.364 50.4545C179.857 50.1612 182.68 50.1979 185.834 50.5645C189.06 50.9312 192.14 51.7012 195.074 52.8745C198.08 53.9745 200.72 55.4779 202.994 57.3845C205.34 59.2912 206.88 61.6012 207.614 64.3145C208.494 67.5412 209.154 70.7679 209.594 73.9945C210.034 77.1479 210.327 80.3745 210.474 83.6745C210.694 88.7345 210.657 93.7212 210.364 98.6345C210.07 103.548 209.41 108.461 208.384 113.375C207.504 117.335 206.074 120.891 204.094 124.045C202.114 127.271 199.62 130.168 196.614 132.735C194.414 134.715 191.994 136.181 189.354 137.135C186.714 138.088 183.927 138.748 180.994 139.115C176.814 139.628 172.78 139.371 168.894 138.345C165.007 137.318 161.304 135.631 157.784 133.285C154.997 131.378 152.76 129.141 151.074 126.575C149.46 124.008 148.507 121.001 148.214 117.555C147.994 115.941 148.104 114.475 148.544 113.155C148.837 112.055 149.314 111.175 149.974 110.515C150.634 109.781 151.404 109.268 152.284 108.975C153.164 108.681 154.044 108.645 154.924 108.865C155.877 109.011 156.794 109.451 157.674 110.185C159.58 111.798 161.157 113.595 162.404 115.575C163.357 117.115 164.53 118.361 165.924 119.315C167.317 120.341 168.82 121.038 170.434 121.405C172.12 121.845 173.88 121.955 175.714 121.735C177.547 121.588 179.38 121.111 181.214 120.305C182.24 119.791 183.01 119.278 183.524 118.765C185.65 116.858 187.3 114.695 188.474 112.275C189.647 109.855 190.564 107.178 191.224 104.245ZM175.934 69.7045C174.54 70.2912 173.147 71.2812 171.754 72.6745C170.36 73.9945 169.224 75.5345 168.344 77.2945C167.464 78.9812 166.95 80.7045 166.804 82.4645C166.657 84.1512 167.097 85.6179 168.124 86.8645C169.737 88.7712 171.534 90.0179 173.514 90.6045C175.567 91.1912 177.767 91.2645 180.114 90.8245C182.314 90.3845 184.477 89.9079 186.604 89.3945C188.804 88.8812 191.004 88.3679 193.204 87.8545C193.424 86.9012 193.534 85.4345 193.534 83.4545C193.607 81.4745 193.57 79.3845 193.424 77.1845C193.277 74.4712 192.727 72.3812 191.774 70.9145C190.82 69.4479 189.537 68.4945 187.924 68.0545C186.384 67.5412 184.587 67.4679 182.534 67.8345C180.48 68.1279 178.28 68.7512 175.934 69.7045ZM234.154 61.5645C236.28 58.7779 238.627 56.2845 241.194 54.0845C243.834 51.8845 246.767 50.1612 249.994 48.9145C251.827 48.2545 253.917 47.8879 256.264 47.8145C258.61 47.7412 260.774 48.0712 262.754 48.8045C264.807 49.4645 266.494 50.5645 267.814 52.1045C269.207 53.5712 269.794 55.4779 269.574 57.8245C269.427 59.0712 268.987 60.2079 268.254 61.2345C267.594 62.1879 266.75 63.0312 265.724 63.7645C264.697 64.4979 263.56 65.0479 262.314 65.4145C261.14 65.7812 260.004 65.9645 258.904 65.9645C256.41 66.0379 254.21 66.7712 252.304 68.1645C250.47 69.5579 248.894 71.3545 247.574 73.5545C246.254 75.7545 245.19 78.2112 244.384 80.9245C243.65 83.6379 243.064 86.3512 242.624 89.0645C242.257 91.7045 242.037 94.2345 241.964 96.6545C241.89 99.0012 241.964 100.981 242.184 102.595C242.257 103.401 242.294 104.208 242.294 105.015C242.367 105.748 242.33 106.481 242.184 107.215C241.817 109.195 240.827 110.808 239.214 112.055C237.674 113.228 235.804 113.851 233.604 113.925C231.477 113.998 229.57 113.485 227.884 112.385C226.27 111.285 225.207 109.781 224.694 107.875C224.327 106.188 224.034 104.501 223.814 102.815C223.594 101.055 223.374 99.3312 223.154 97.6445C222.567 92.3645 221.944 87.1212 221.284 81.9145C220.697 76.6345 220.11 71.3179 219.524 65.9645C219.304 64.5712 219.157 63.1779 219.084 61.7845C219.01 60.3912 218.937 58.9612 218.864 57.4945C218.717 56.1745 218.864 55.0012 219.304 53.9745C219.89 51.7012 221.467 50.3445 224.034 49.9045C226.747 49.4645 228.8 50.2345 230.194 52.2145C230.707 52.9479 231.11 53.7545 231.404 54.6345C231.77 55.4412 232.137 56.2479 232.504 57.0545C232.724 57.7145 232.944 58.4112 233.164 59.1445C233.457 59.8779 233.787 60.6845 234.154 61.5645ZM310.72 75.6445C311.894 73.9579 312.994 72.3445 314.02 70.8045C315.047 69.2645 316.074 67.7612 317.1 66.2945C318.42 64.4612 319.814 62.8112 321.28 61.3445C322.82 59.8045 324.544 58.4479 326.45 57.2745C327.33 56.7612 328.247 56.3212 329.2 55.9545C330.154 55.5879 331.144 55.3312 332.17 55.1845C333.637 55.0379 334.957 55.2212 336.13 55.7345C337.377 56.1745 338.367 56.8712 339.1 57.8245C339.834 58.7779 340.274 59.9145 340.42 61.2345C340.64 62.4812 340.53 63.8012 340.09 65.1945C339.65 66.3679 339.1 67.5045 338.44 68.6045C337.854 69.7045 337.267 70.8045 336.68 71.9045C336.387 72.4912 336.094 73.0779 335.8 73.6645C335.507 74.1779 335.177 74.6912 334.81 75.2045C328.87 83.4179 323.444 91.8512 318.53 100.505C313.69 109.158 308.997 117.995 304.45 127.015C303.864 128.041 303.277 129.031 302.69 129.985C302.177 131.011 301.59 132.001 300.93 132.955C298.51 136.181 295.724 137.171 292.57 135.925C289.417 134.751 287.987 132.295 288.28 128.555C288.427 127.015 288.61 125.475 288.83 123.935C289.05 122.468 289.454 121.001 290.04 119.535C291.434 115.795 292.864 112.128 294.33 108.535C295.87 104.868 297.374 101.201 298.84 97.5345C299.06 96.9479 299.28 96.3612 299.5 95.7745C299.794 95.1879 300.124 94.6012 300.49 94.0145C296.897 91.1545 293.744 87.9645 291.03 84.4445C288.317 80.8512 285.64 77.2579 283 73.6645C282.194 72.5645 281.424 71.4645 280.69 70.3645C279.957 69.1912 279.224 68.0179 278.49 66.8445C278.124 66.2579 277.794 65.6712 277.5 65.0845C277.207 64.4245 276.987 63.7645 276.84 63.1045C276.4 61.7112 276.327 60.3912 276.62 59.1445C276.987 57.8979 277.574 56.8712 278.38 56.0645C279.187 55.1845 280.214 54.5979 281.46 54.3045C282.707 53.9379 284.027 53.9745 285.42 54.4145C286.52 54.7812 287.62 55.2212 288.72 55.7345C289.82 56.2479 290.81 56.9079 291.69 57.7145C294.697 60.3545 297.63 63.0679 300.49 65.8545C303.424 68.5679 306.357 71.3179 309.29 74.1045C309.51 74.2512 309.694 74.4712 309.84 74.7645C310.06 74.9845 310.354 75.2779 310.72 75.6445Z" fill="white"/>
<path fill-rule="evenodd" clip-rule="evenodd" d="M65.9203 175.076C59.2421 189.58 52.5366 210.784 54.6156 217.981C57.4163 227.676 68.8347 239.74 86.2854 241.464C103.736 243.188 115.37 233.062 117.955 224.66C119.219 220.552 121.101 208.152 121.234 195.393C99.7104 191.527 79.4801 182.303 65.9203 175.076Z" fill="black"/>
<path d="M155.338 261.48H182.649" stroke="black" stroke-width="13" stroke-linecap="round"/>
<path fill-rule="evenodd" clip-rule="evenodd" d="M225.473 195.855C245.88 191.498 267.026 180.95 280.127 173.676C287.012 188.179 294.233 210.549 292.086 217.981C289.285 227.676 277.867 239.74 260.416 241.464C242.965 243.187 231.332 233.062 228.746 224.659C227.497 220.601 225.646 208.45 225.473 195.855Z" fill="black"/>
<path d="M105.074 161.244L121.635 175.771" stroke="black" stroke-width="13" stroke-linecap="round"/>
<path d="M242.211 161.244L225.65 175.771" stroke="black" stroke-width="13" stroke-linecap="round"/>
</svg>
