<svg width="280" height="275" viewBox="0 0 280 275" fill="none" xmlns="http://www.w3.org/2000/svg">
<path d="M104.851 18.296C104.899 18.808 104.947 19.312 104.995 19.808C105.043 20.288 105.091 20.768 105.139 21.248C105.171 21.536 105.195 21.824 105.211 22.112C105.227 22.4 105.227 22.68 105.211 22.952C105.195 23.64 104.907 24.232 104.347 24.728C103.979 25.08 103.563 25.264 103.099 25.28C102.651 25.296 102.227 25.144 101.827 24.824C101.091 24.2 100.723 23.408 100.723 22.448C100.723 21.872 100.731 21.296 100.747 20.72C100.763 20.144 100.779 19.568 100.795 18.992V18.152C100.587 18.104 100.379 18.048 100.171 17.984C99.979 17.92 99.803 17.84 99.643 17.744C99.499 17.632 99.379 17.496 99.283 17.336C99.203 17.16 99.171 16.944 99.187 16.688C99.203 16.192 99.371 15.856 99.691 15.68C100.011 15.504 100.371 15.376 100.771 15.296C100.787 15.232 100.803 15.184 100.819 15.152C100.835 15.104 100.843 15.056 100.843 15.008C100.843 14.064 100.851 13.128 100.867 12.2C100.883 11.256 100.867 10.312 100.819 9.368C100.787 8.568 100.971 7.912 101.371 7.4C101.771 6.872 102.355 6.528 103.123 6.368C103.843 6.208 104.563 6.12 105.283 6.104C106.003 6.072 106.723 6.08 107.443 6.128C107.811 6.144 108.171 6.176 108.523 6.224C108.875 6.272 109.235 6.32 109.603 6.368C109.699 6.368 109.827 6.384 109.987 6.416C110.451 6.544 110.827 6.76 111.115 7.064C111.403 7.352 111.563 7.688 111.595 8.072C111.627 8.472 111.531 8.832 111.307 9.152C111.099 9.472 110.763 9.728 110.299 9.92C109.739 10.176 109.171 10.352 108.595 10.448C108.019 10.544 107.427 10.632 106.819 10.712C106.467 10.744 106.115 10.776 105.763 10.808C105.427 10.824 105.075 10.848 104.707 10.88C104.627 11.536 104.603 12.184 104.635 12.824C104.667 13.464 104.691 14.128 104.707 14.816C105.043 14.784 105.363 14.76 105.667 14.744C105.987 14.712 106.299 14.696 106.603 14.696C106.971 14.696 107.339 14.696 107.707 14.696C108.091 14.68 108.467 14.704 108.835 14.768C109.331 14.848 109.707 15.024 109.963 15.296C110.219 15.568 110.363 15.888 110.395 16.256C110.427 16.608 110.331 16.928 110.107 17.216C109.883 17.504 109.539 17.728 109.075 17.888C108.851 17.968 108.619 18.032 108.379 18.08C108.155 18.112 107.931 18.144 107.707 18.176C107.371 18.208 107.035 18.224 106.699 18.224C106.363 18.208 106.019 18.208 105.667 18.224C105.459 18.224 105.187 18.248 104.851 18.296ZM116.164 15.152C116.324 15.728 116.66 16.128 117.172 16.352C118.42 16.912 119.572 16.792 120.628 15.992C120.756 15.896 120.876 15.8 120.988 15.704C121.1 15.608 121.22 15.52 121.348 15.44C121.86 15.12 122.324 15.12 122.74 15.44C123.156 15.744 123.284 16.192 123.124 16.784C122.932 17.456 122.604 18.008 122.14 18.44C120.668 19.832 118.988 20.28 117.1 19.784C115.66 19.416 114.532 18.728 113.716 17.72C112.916 16.712 112.476 15.456 112.396 13.952C112.348 13.184 112.404 12.44 112.564 11.72C112.74 11 113.012 10.304 113.38 9.632C113.668 9.072 114.044 8.584 114.508 8.168C114.972 7.736 115.484 7.392 116.044 7.136C116.604 6.864 117.188 6.688 117.796 6.608C118.42 6.528 119.036 6.56 119.644 6.704C120.46 6.88 121.14 7.208 121.684 7.688C122.244 8.168 122.644 8.808 122.884 9.608C123.076 10.248 123.116 10.856 123.004 11.432C122.908 11.992 122.7 12.512 122.38 12.992C122.06 13.456 121.652 13.864 121.156 14.216C120.676 14.568 120.156 14.848 119.596 15.056C119.036 15.248 118.46 15.36 117.868 15.392C117.276 15.424 116.708 15.344 116.164 15.152ZM117.988 9.872C117.38 10.112 116.996 10.416 116.836 10.784C116.676 11.136 116.66 11.456 116.788 11.744C116.932 12.016 117.188 12.216 117.556 12.344C117.924 12.456 118.348 12.392 118.828 12.152C119.196 11.96 119.452 11.712 119.596 11.408C119.756 11.104 119.796 10.824 119.716 10.568C119.652 10.296 119.468 10.088 119.164 9.944C118.876 9.784 118.484 9.76 117.988 9.872ZM127.821 15.152C127.981 15.728 128.317 16.128 128.829 16.352C130.077 16.912 131.229 16.792 132.285 15.992C132.413 15.896 132.533 15.8 132.645 15.704C132.757 15.608 132.877 15.52 133.005 15.44C133.517 15.12 133.981 15.12 134.397 15.44C134.813 15.744 134.941 16.192 134.781 16.784C134.589 17.456 134.261 18.008 133.797 18.44C132.325 19.832 130.645 20.28 128.757 19.784C127.317 19.416 126.189 18.728 125.373 17.72C124.573 16.712 124.133 15.456 124.053 13.952C124.005 13.184 124.061 12.44 124.221 11.72C124.397 11 124.669 10.304 125.037 9.632C125.325 9.072 125.701 8.584 126.165 8.168C126.629 7.736 127.141 7.392 127.701 7.136C128.261 6.864 128.845 6.688 129.453 6.608C130.077 6.528 130.693 6.56 131.301 6.704C132.117 6.88 132.797 7.208 133.341 7.688C133.901 8.168 134.301 8.808 134.541 9.608C134.733 10.248 134.773 10.856 134.661 11.432C134.565 11.992 134.357 12.512 134.037 12.992C133.717 13.456 133.309 13.864 132.813 14.216C132.333 14.568 131.813 14.848 131.253 15.056C130.693 15.248 130.117 15.36 129.525 15.392C128.933 15.424 128.365 15.344 127.821 15.152ZM129.645 9.872C129.037 10.112 128.653 10.416 128.493 10.784C128.333 11.136 128.317 11.456 128.445 11.744C128.589 12.016 128.845 12.216 129.213 12.344C129.581 12.456 130.005 12.392 130.485 12.152C130.853 11.96 131.109 11.712 131.253 11.408C131.413 11.104 131.453 10.824 131.373 10.568C131.309 10.296 131.125 10.088 130.821 9.944C130.533 9.784 130.141 9.76 129.645 9.872ZM135.975 4.592C135.975 4.32 135.999 4.048 136.047 3.776C136.127 3.392 136.287 3.064 136.527 2.792C136.783 2.52 137.087 2.352 137.439 2.288C138.287 2.144 138.927 2.416 139.359 3.104C139.487 3.312 139.591 3.528 139.671 3.752C139.767 3.96 139.847 4.176 139.911 4.4C140.167 5.312 140.359 6.232 140.487 7.16C140.615 8.072 140.719 9 140.799 9.944C140.879 11.048 140.951 12.144 141.015 13.232C141.079 14.32 141.151 15.416 141.231 16.52C141.295 17.496 141.119 18.44 140.703 19.352C140.543 19.688 140.327 19.944 140.055 20.12C139.799 20.312 139.527 20.424 139.239 20.456C138.951 20.488 138.655 20.44 138.351 20.312C138.063 20.184 137.807 19.976 137.583 19.688C137.311 19.352 137.087 18.992 136.911 18.608C136.735 18.224 136.631 17.816 136.599 17.384C136.551 16.872 136.503 16.352 136.455 15.824C136.423 15.296 136.391 14.768 136.359 14.24C136.247 12.496 136.135 10.84 136.023 9.272C135.927 7.704 135.911 6.144 135.975 4.592ZM142.807 10.904C142.823 10.216 142.991 9.712 143.311 9.392C143.631 9.072 143.983 8.912 144.367 8.912C144.767 8.912 145.143 9.064 145.495 9.368C145.863 9.672 146.095 10.096 146.191 10.64C146.303 11.184 146.415 11.848 146.527 12.632C146.639 13.416 146.711 14.216 146.743 15.032C146.791 15.848 146.775 16.632 146.695 17.384C146.615 18.136 146.447 18.752 146.191 19.232C145.999 19.536 145.775 19.768 145.519 19.928C145.279 20.088 145.023 20.168 144.751 20.168C144.479 20.168 144.215 20.096 143.959 19.952C143.703 19.792 143.479 19.56 143.287 19.256C143.063 18.888 142.903 18.512 142.807 18.128C142.727 17.728 142.687 17.32 142.687 16.904C142.719 15.848 142.735 14.84 142.735 13.88C142.751 12.904 142.775 11.912 142.807 10.904ZM144.055 4.4C144.567 4.4 144.991 4.576 145.327 4.928C145.679 5.28 145.847 5.712 145.831 6.224C145.831 6.72 145.647 7.144 145.279 7.496C144.927 7.848 144.503 8.024 144.007 8.024C143.511 8.008 143.087 7.816 142.735 7.448C142.383 7.08 142.207 6.656 142.207 6.176C142.223 5.664 142.407 5.24 142.759 4.904C143.127 4.552 143.559 4.384 144.055 4.4ZM151.76 7.76C151.936 7.6 152.096 7.456 152.24 7.328C152.4 7.184 152.552 7.048 152.696 6.92C153.24 6.488 153.824 6.176 154.448 5.984C155.088 5.776 155.72 5.696 156.344 5.744C156.984 5.792 157.6 5.96 158.192 6.248C158.8 6.52 159.336 6.912 159.8 7.424C160.264 7.936 160.616 8.496 160.856 9.104C161.096 9.696 161.272 10.328 161.384 11C161.56 11.976 161.64 12.952 161.624 13.928C161.608 14.888 161.56 15.856 161.48 16.832C161.464 17.008 161.448 17.184 161.432 17.36C161.432 17.536 161.416 17.712 161.384 17.888C161.32 18.576 161.024 19.184 160.496 19.712C159.984 20.192 159.424 20.4 158.816 20.336C158.224 20.288 157.72 19.984 157.304 19.424C156.888 18.816 156.704 18.16 156.752 17.456C156.784 16.688 156.816 15.936 156.848 15.2C156.88 14.464 156.912 13.712 156.944 12.944C156.96 12.624 156.96 12.304 156.944 11.984C156.944 11.648 156.928 11.32 156.896 11C156.864 10.728 156.8 10.472 156.704 10.232C156.624 9.992 156.432 9.824 156.128 9.728C155.84 9.632 155.552 9.648 155.264 9.776C154.992 9.888 154.728 10.064 154.472 10.304C154.232 10.544 154.008 10.832 153.8 11.168C153.592 11.504 153.408 11.848 153.248 12.2C153.104 12.536 152.992 12.872 152.912 13.208C152.848 13.528 152.824 13.792 152.84 14C152.856 14.416 152.872 14.752 152.888 15.008C152.904 15.264 152.92 15.504 152.936 15.728C152.968 15.936 152.992 16.168 153.008 16.424C153.04 16.68 153.072 17.016 153.104 17.432C153.136 17.928 153.088 18.384 152.96 18.8C152.832 19.216 152.56 19.584 152.144 19.904C151.744 20.208 151.336 20.36 150.92 20.36C150.504 20.376 150.12 20.28 149.768 20.072C149.416 19.864 149.112 19.584 148.856 19.232C148.6 18.864 148.432 18.456 148.352 18.008C148.192 17.224 148.104 16.44 148.088 15.656C148.072 14.856 148.088 14.056 148.136 13.256C148.2 12.44 148.28 11.632 148.376 10.832C148.472 10.016 148.544 9.2 148.592 8.384C148.608 8.256 148.624 8.136 148.64 8.024C148.672 7.896 148.712 7.768 148.76 7.64C148.856 7.384 149 7.176 149.192 7.016C149.4 6.84 149.624 6.728 149.864 6.68C150.104 6.632 150.344 6.648 150.584 6.728C150.84 6.792 151.064 6.928 151.256 7.136C151.352 7.216 151.432 7.312 151.496 7.424C151.576 7.52 151.664 7.632 151.76 7.76ZM172.51 17.84C172.238 17.92 171.99 18 171.766 18.08C171.542 18.144 171.318 18.216 171.094 18.296C170.55 18.472 169.958 18.576 169.318 18.608C168.678 18.64 168.03 18.576 167.374 18.416C166.718 18.24 166.078 17.968 165.454 17.6C164.846 17.216 164.302 16.712 163.822 16.088C163.198 15.272 162.838 14.432 162.742 13.568C162.662 12.704 162.798 11.816 163.15 10.904C163.71 9.448 164.526 8.336 165.598 7.568C166.67 6.8 167.966 6.312 169.486 6.104C170.03 6.04 170.646 6.048 171.334 6.128C172.038 6.208 172.71 6.376 173.35 6.632C174.006 6.872 174.582 7.2 175.078 7.616C175.59 8.032 175.926 8.536 176.086 9.128C176.278 9.832 176.422 10.536 176.518 11.24C176.614 11.928 176.678 12.632 176.71 13.352C176.758 14.456 176.75 15.544 176.686 16.616C176.622 17.688 176.478 18.76 176.254 19.832C176.062 20.696 175.75 21.472 175.318 22.16C174.886 22.864 174.342 23.496 173.686 24.056C173.206 24.488 172.678 24.808 172.102 25.016C171.526 25.224 170.918 25.368 170.278 25.448C169.366 25.56 168.486 25.504 167.638 25.28C166.79 25.056 165.982 24.688 165.214 24.176C164.606 23.76 164.118 23.272 163.75 22.712C163.398 22.152 163.19 21.496 163.126 20.744C163.078 20.392 163.102 20.072 163.198 19.784C163.262 19.544 163.366 19.352 163.51 19.208C163.654 19.048 163.822 18.936 164.014 18.872C164.206 18.808 164.398 18.8 164.59 18.848C164.798 18.88 164.998 18.976 165.19 19.136C165.606 19.488 165.95 19.88 166.222 20.312C166.43 20.648 166.686 20.92 166.99 21.128C167.294 21.352 167.622 21.504 167.974 21.584C168.342 21.68 168.726 21.704 169.126 21.656C169.526 21.624 169.926 21.52 170.326 21.344C170.55 21.232 170.718 21.12 170.83 21.008C171.294 20.592 171.654 20.12 171.91 19.592C172.166 19.064 172.366 18.48 172.51 17.84ZM169.174 10.304C168.87 10.432 168.566 10.648 168.262 10.952C167.958 11.24 167.71 11.576 167.518 11.96C167.326 12.328 167.214 12.704 167.182 13.088C167.15 13.456 167.246 13.776 167.47 14.048C167.822 14.464 168.214 14.736 168.646 14.864C169.094 14.992 169.574 15.008 170.086 14.912C170.566 14.816 171.038 14.712 171.502 14.6C171.982 14.488 172.462 14.376 172.942 14.264C172.99 14.056 173.014 13.736 173.014 13.304C173.03 12.872 173.022 12.416 172.99 11.936C172.958 11.344 172.838 10.888 172.63 10.568C172.422 10.248 172.142 10.04 171.79 9.944C171.454 9.832 171.062 9.816 170.614 9.896C170.166 9.96 169.686 10.096 169.174 10.304ZM179.404 19.64C178.924 19.64 178.524 19.48 178.204 19.16C177.884 18.824 177.732 18.424 177.748 17.96C177.764 17.496 177.932 17.104 178.252 16.784C178.572 16.464 178.964 16.312 179.428 16.328C179.876 16.328 180.268 16.496 180.604 16.832C180.94 17.152 181.1 17.544 181.084 18.008C181.068 18.472 180.9 18.864 180.58 19.184C180.26 19.488 179.868 19.64 179.404 19.64ZM183.632 19.64C183.152 19.64 182.752 19.48 182.432 19.16C182.112 18.824 181.96 18.424 181.976 17.96C181.992 17.496 182.16 17.104 182.48 16.784C182.8 16.464 183.192 16.312 183.656 16.328C184.104 16.328 184.496 16.496 184.832 16.832C185.168 17.152 185.328 17.544 185.312 18.008C185.296 18.472 185.128 18.864 184.808 19.184C184.488 19.488 184.096 19.64 183.632 19.64ZM187.86 19.64C187.38 19.64 186.98 19.48 186.66 19.16C186.34 18.824 186.188 18.424 186.204 17.96C186.22 17.496 186.388 17.104 186.708 16.784C187.028 16.464 187.42 16.312 187.884 16.328C188.332 16.328 188.724 16.496 189.06 16.832C189.396 17.152 189.556 17.544 189.54 18.008C189.524 18.472 189.356 18.864 189.036 19.184C188.716 19.488 188.324 19.64 187.86 19.64Z" fill="black"/>
<path d="M39.5119 49.7665C41.9506 50.2385 44.1926 51.0252 46.2379 52.1265C48.2833 53.2279 49.9746 54.7619 51.3119 56.7285C52.6493 58.8525 52.8853 60.9765 52.0199 63.1005C51.2333 65.2245 49.6206 66.6012 47.1819 67.2305C46.0806 67.5452 44.9399 67.7812 43.7599 67.9385C42.5799 68.0959 41.3999 68.0565 40.2199 67.8205C36.3653 66.9552 33.1793 67.3879 30.6619 69.1185C28.1446 70.7705 26.2959 73.0912 25.1159 76.0805C23.9359 79.0699 23.3853 82.3739 23.4639 85.9925C23.5426 89.6112 24.2506 92.8759 25.5879 95.7865C26.7679 97.9105 28.1053 99.2872 29.5999 99.9165C31.1733 100.467 32.7859 100.585 34.4379 100.271C36.0899 99.8772 37.7026 99.1692 39.2759 98.1465C40.9279 97.1239 42.4226 96.0619 43.7599 94.9605C46.5919 92.9152 49.1093 91.8925 51.3119 91.8925C53.5933 91.8925 55.2846 92.5612 56.3859 93.8985C57.5659 95.2359 58.0379 97.0452 57.8019 99.3265C57.6446 101.608 56.5433 103.968 54.4979 106.407C51.4299 109.789 47.9686 112.425 44.1139 114.313C40.3379 116.201 36.1293 117.184 31.4879 117.263C26.0599 117.263 21.2613 116.043 17.0919 113.605C13.0013 111.166 9.7366 107.39 7.29794 102.277C5.40994 98.4219 4.3086 94.3312 3.99394 90.0045C3.67927 85.5992 3.9546 81.3119 4.81994 77.1425C5.76394 72.8945 7.2586 68.9219 9.30394 65.2245C11.4279 61.4485 13.9846 58.2625 16.9739 55.6665C19.9633 53.0705 23.3459 51.2219 27.1219 50.1205C30.9766 48.9405 35.1066 48.8225 39.5119 49.7665ZM101.182 117.853C95.5177 117.853 90.601 116.987 86.4317 115.257C82.2624 113.526 78.7617 111.205 75.9297 108.295C73.0977 105.305 70.895 101.844 69.3217 97.9105C67.7484 93.9772 66.6864 89.8079 66.1357 85.4025C65.585 80.9972 65.5457 76.4739 66.0177 71.8325C66.5684 67.1912 67.473 62.7072 68.7317 58.3805C68.9677 57.7512 69.2037 57.1612 69.4397 56.6105C69.6757 56.0599 69.9904 55.5092 70.3837 54.9585C71.4064 53.3852 72.665 52.2839 74.1597 51.6545C75.6544 51.0252 77.2277 50.8285 78.8797 51.0645C82.577 51.6939 84.8584 53.5819 85.7237 56.7285C86.117 57.5939 86.353 58.4985 86.4317 59.4425C86.5104 60.3865 86.589 61.2912 86.6677 62.1565C86.825 65.6965 86.9037 69.1972 86.9037 72.6585C86.9824 76.1199 87.1397 79.6205 87.3757 83.1605C87.769 87.8019 89.0277 91.6565 91.1517 94.7245C93.2757 97.7925 96.6584 99.6019 101.3 100.153C104.761 100.625 107.672 100.31 110.032 99.2085C112.47 98.0285 114.437 96.3372 115.932 94.1345C117.426 91.9319 118.488 89.4539 119.118 86.7005C119.747 83.8685 120.022 81.0365 119.944 78.2045C119.786 75.9232 119.472 73.7205 119 71.5965C118.528 69.3939 118.174 67.1519 117.938 64.8705C117.78 63.2972 117.623 61.7239 117.466 60.1505C117.387 58.5772 117.426 57.0039 117.584 55.4305C117.977 53.3065 118.921 51.6152 120.416 50.3565C121.989 49.0979 123.798 48.2719 125.844 47.8785C127.732 47.6425 129.58 47.9572 131.39 48.8225C133.278 49.6879 134.812 50.9859 135.992 52.7165C137.486 55.0765 138.391 57.5545 138.706 60.1505C139.02 62.6679 139.256 65.2245 139.414 67.8205C139.728 74.0352 139.217 80.1319 137.88 86.1105C136.542 92.0892 134.3 97.4385 131.154 102.159C128.086 106.879 124.034 110.694 119 113.605C114.044 116.437 108.104 117.853 101.182 117.853ZM168.468 77.3785C167.209 77.2999 166.029 77.2605 164.928 77.2605C163.826 77.1819 162.725 77.0639 161.624 76.9065C160.129 76.7492 158.634 76.6312 157.14 76.5525C155.645 76.4739 154.19 76.3165 152.774 76.0805C150.65 75.6872 148.998 74.9005 147.818 73.7205C146.638 72.5405 146.126 71.2032 146.284 69.7085C146.441 68.3712 147.07 67.1912 148.172 66.1685C149.273 65.0672 150.846 64.3592 152.892 64.0445C155.566 63.6512 158.241 63.3365 160.916 63.1005C163.59 62.8645 166.344 62.5499 169.176 62.1565C169.333 60.4259 169.49 58.6559 169.648 56.8465C169.884 55.0372 170.12 53.2279 170.356 51.4185C170.513 50.3959 170.67 49.3732 170.828 48.3505C170.985 47.2492 171.182 46.1872 171.418 45.1645C171.968 43.0405 173.03 41.3885 174.604 40.2085C176.177 38.9499 178.065 38.3205 180.268 38.3205C182.392 38.3205 184.24 38.9499 185.814 40.2085C187.466 41.3885 188.528 43.0405 189 45.1645C189.472 47.6819 189.865 50.2779 190.18 52.9525C190.494 55.5485 190.848 58.2232 191.242 60.9765C192.107 60.8979 192.972 60.8585 193.838 60.8585C194.782 60.7799 195.726 60.7012 196.67 60.6225C198.322 60.5439 199.974 60.4652 201.626 60.3865C203.278 60.3079 204.93 60.2685 206.582 60.2685C208.548 60.2685 210.397 60.7012 212.128 61.5665C214.409 62.5105 215.668 63.9659 215.904 65.9325C216.218 67.8205 215.471 69.5119 213.662 71.0065C212.875 71.6359 211.97 72.1865 210.948 72.6585C210.004 73.1305 209.02 73.4845 207.998 73.7205C205.323 74.4285 202.609 75.0579 199.856 75.6085C197.181 76.0805 194.349 76.6312 191.36 77.2605C191.36 77.8899 191.399 78.5192 191.478 79.1485C191.556 79.7779 191.517 80.4072 191.36 81.0365C191.36 84.9699 191.399 88.9032 191.478 92.8365C191.556 96.6912 191.399 100.585 191.006 104.519C190.848 106.171 190.534 107.941 190.062 109.829C189.59 111.717 188.921 113.526 188.056 115.257C187.269 116.909 186.207 118.325 184.87 119.505C183.611 120.763 182.077 121.511 180.268 121.747C177.672 121.983 175.548 121.471 173.896 120.213C172.322 119.033 171.103 117.459 170.238 115.493C169.372 113.447 168.782 111.284 168.468 109.003C168.232 106.643 168.074 104.519 167.996 102.631C167.838 99.1692 167.838 95.7079 167.996 92.2465C168.153 88.7852 168.31 85.2845 168.468 81.7445V77.3785ZM241.58 93.3085C242.367 96.1405 244.019 98.1072 246.536 99.2085C252.672 101.962 258.336 101.372 263.528 97.4385C264.158 96.9665 264.748 96.4945 265.298 96.0225C265.849 95.5505 266.439 95.1179 267.068 94.7245C269.586 93.1512 271.867 93.1512 273.912 94.7245C275.958 96.2192 276.587 98.4219 275.8 101.333C274.856 104.637 273.244 107.351 270.962 109.475C263.725 116.319 255.465 118.521 246.182 116.083C239.102 114.273 233.556 110.891 229.544 105.935C225.611 100.979 223.448 94.8032 223.054 87.4085C222.818 83.6325 223.094 79.9745 223.88 76.4345C224.746 72.8945 226.083 69.4725 227.892 66.1685C229.308 63.4152 231.157 61.0159 233.438 58.9705C235.72 56.8465 238.237 55.1552 240.99 53.8965C243.744 52.5592 246.615 51.6939 249.604 51.3005C252.672 50.9072 255.701 51.0645 258.69 51.7725C262.702 52.6379 266.046 54.2505 268.72 56.6105C271.474 58.9705 273.44 62.1172 274.62 66.0505C275.564 69.1972 275.761 72.1865 275.21 75.0185C274.738 77.7719 273.716 80.3285 272.142 82.6885C270.569 84.9699 268.563 86.9759 266.124 88.7065C263.764 90.4372 261.208 91.8139 258.454 92.8365C255.701 93.7805 252.869 94.3312 249.958 94.4885C247.048 94.6459 244.255 94.2525 241.58 93.3085ZM250.548 67.3485C247.559 68.5285 245.671 70.0232 244.884 71.8325C244.098 73.5632 244.019 75.1365 244.648 76.5525C245.356 77.8899 246.615 78.8732 248.424 79.5025C250.234 80.0532 252.318 79.7385 254.678 78.5585C256.488 77.6145 257.746 76.3952 258.454 74.9005C259.241 73.4059 259.438 72.0292 259.044 70.7705C258.73 69.4332 257.825 68.4105 256.33 67.7025C254.914 66.9159 252.987 66.7979 250.548 67.3485Z" fill="black"/>
<path d="M27.7958 174.202C33.4849 166.725 43.8473 165.668 48.3174 166.075C50.3492 165.668 56.7698 166.725 66.1975 174.202C77.9822 183.548 73.1058 224.185 70.6675 232.109C68.2293 240.034 57.2574 249.583 40.7995 247.958C24.3417 246.332 13.5729 234.954 10.9315 225.811C8.29016 216.667 20.6844 183.548 27.7958 174.202Z" fill="black"/>
<path d="M260.775 174.202C255.085 166.725 244.723 165.668 240.253 166.075C238.221 165.668 231.801 166.725 222.373 174.202C210.588 183.548 215.465 224.185 217.903 232.109C220.341 240.034 231.313 249.583 247.771 247.958C264.229 246.332 274.997 234.954 277.639 225.811C280.28 216.667 267.886 183.548 260.775 174.202Z" fill="black"/>
<path d="M95.0384 257.151C95.4394 258.087 102.558 259.992 106.067 260.827C110.078 264.281 118.466 271.522 119.937 272.859C121.775 274.53 122.611 274.363 124.115 274.363C125.619 274.363 137.149 265.172 138.486 264.336C139.822 263.501 143.332 264.336 150.684 264.336C155.865 269.182 165.557 274.363 166.893 274.363C168.23 274.363 173.578 268.848 182.936 260.827C191.959 258.321 193.63 257.151 193.63 254.31C193.63 251.469 191.792 252.305 185.609 254.31C179.426 256.315 161.88 258.321 138.486 258.655C115.091 258.989 98.7147 252.639 96.3752 252.305C94.0358 251.971 94.5371 255.981 95.0384 257.151Z" fill="black"/>
<path d="M121.943 271.357C120.74 270.955 116.874 265.285 115.092 262.5L132.471 264.004C129.463 266.622 123.146 271.758 121.943 271.357Z" fill="white"/>
<path d="M166.226 271.357C164.354 271.357 158.65 266.455 156.032 264.004L174.08 262.5C172.242 265.452 168.097 271.357 166.226 271.357Z" fill="white"/>
</svg>
