<svg width="342" height="304" viewBox="0 0 342 304" fill="none" xmlns="http://www.w3.org/2000/svg">
<path d="M135.851 18.296C135.899 18.808 135.947 19.312 135.995 19.808C136.043 20.288 136.091 20.768 136.139 21.248C136.171 21.536 136.195 21.824 136.211 22.112C136.227 22.4 136.227 22.68 136.211 22.952C136.195 23.64 135.907 24.232 135.347 24.728C134.979 25.08 134.563 25.264 134.099 25.28C133.651 25.296 133.227 25.144 132.827 24.824C132.091 24.2 131.723 23.408 131.723 22.448C131.723 21.872 131.731 21.296 131.747 20.72C131.763 20.144 131.779 19.568 131.795 18.992V18.152C131.587 18.104 131.379 18.048 131.171 17.984C130.979 17.92 130.803 17.84 130.643 17.744C130.499 17.632 130.379 17.496 130.283 17.336C130.203 17.16 130.171 16.944 130.187 16.688C130.203 16.192 130.371 15.856 130.691 15.68C131.011 15.504 131.371 15.376 131.771 15.296C131.787 15.232 131.803 15.184 131.819 15.152C131.835 15.104 131.843 15.056 131.843 15.008C131.843 14.064 131.851 13.128 131.867 12.2C131.883 11.256 131.867 10.312 131.819 9.368C131.787 8.568 131.971 7.912 132.371 7.4C132.771 6.872 133.355 6.528 134.123 6.368C134.843 6.208 135.563 6.12 136.283 6.104C137.003 6.072 137.723 6.08 138.443 6.128C138.811 6.144 139.171 6.176 139.523 6.224C139.875 6.272 140.235 6.32 140.603 6.368C140.699 6.368 140.827 6.384 140.987 6.416C141.451 6.544 141.827 6.76 142.115 7.064C142.403 7.352 142.563 7.688 142.595 8.072C142.627 8.472 142.531 8.832 142.307 9.152C142.099 9.472 141.763 9.728 141.299 9.92C140.739 10.176 140.171 10.352 139.595 10.448C139.019 10.544 138.427 10.632 137.819 10.712C137.467 10.744 137.115 10.776 136.763 10.808C136.427 10.824 136.075 10.848 135.707 10.88C135.627 11.536 135.603 12.184 135.635 12.824C135.667 13.464 135.691 14.128 135.707 14.816C136.043 14.784 136.363 14.76 136.667 14.744C136.987 14.712 137.299 14.696 137.603 14.696C137.971 14.696 138.339 14.696 138.707 14.696C139.091 14.68 139.467 14.704 139.835 14.768C140.331 14.848 140.707 15.024 140.963 15.296C141.219 15.568 141.363 15.888 141.395 16.256C141.427 16.608 141.331 16.928 141.107 17.216C140.883 17.504 140.539 17.728 140.075 17.888C139.851 17.968 139.619 18.032 139.379 18.08C139.155 18.112 138.931 18.144 138.707 18.176C138.371 18.208 138.035 18.224 137.699 18.224C137.363 18.208 137.019 18.208 136.667 18.224C136.459 18.224 136.187 18.248 135.851 18.296ZM147.164 15.152C147.324 15.728 147.66 16.128 148.172 16.352C149.42 16.912 150.572 16.792 151.628 15.992C151.756 15.896 151.876 15.8 151.988 15.704C152.1 15.608 152.22 15.52 152.348 15.44C152.86 15.12 153.324 15.12 153.74 15.44C154.156 15.744 154.284 16.192 154.124 16.784C153.932 17.456 153.604 18.008 153.14 18.44C151.668 19.832 149.988 20.28 148.1 19.784C146.66 19.416 145.532 18.728 144.716 17.72C143.916 16.712 143.476 15.456 143.396 13.952C143.348 13.184 143.404 12.44 143.564 11.72C143.74 11 144.012 10.304 144.38 9.632C144.668 9.072 145.044 8.584 145.508 8.168C145.972 7.736 146.484 7.392 147.044 7.136C147.604 6.864 148.188 6.688 148.796 6.608C149.42 6.528 150.036 6.56 150.644 6.704C151.46 6.88 152.14 7.208 152.684 7.688C153.244 8.168 153.644 8.808 153.884 9.608C154.076 10.248 154.116 10.856 154.004 11.432C153.908 11.992 153.7 12.512 153.38 12.992C153.06 13.456 152.652 13.864 152.156 14.216C151.676 14.568 151.156 14.848 150.596 15.056C150.036 15.248 149.46 15.36 148.868 15.392C148.276 15.424 147.708 15.344 147.164 15.152ZM148.988 9.872C148.38 10.112 147.996 10.416 147.836 10.784C147.676 11.136 147.66 11.456 147.788 11.744C147.932 12.016 148.188 12.216 148.556 12.344C148.924 12.456 149.348 12.392 149.828 12.152C150.196 11.96 150.452 11.712 150.596 11.408C150.756 11.104 150.796 10.824 150.716 10.568C150.652 10.296 150.468 10.088 150.164 9.944C149.876 9.784 149.484 9.76 148.988 9.872ZM158.821 15.152C158.981 15.728 159.317 16.128 159.829 16.352C161.077 16.912 162.229 16.792 163.285 15.992C163.413 15.896 163.533 15.8 163.645 15.704C163.757 15.608 163.877 15.52 164.005 15.44C164.517 15.12 164.981 15.12 165.397 15.44C165.813 15.744 165.941 16.192 165.781 16.784C165.589 17.456 165.261 18.008 164.797 18.44C163.325 19.832 161.645 20.28 159.757 19.784C158.317 19.416 157.189 18.728 156.373 17.72C155.573 16.712 155.133 15.456 155.053 13.952C155.005 13.184 155.061 12.44 155.221 11.72C155.397 11 155.669 10.304 156.037 9.632C156.325 9.072 156.701 8.584 157.165 8.168C157.629 7.736 158.141 7.392 158.701 7.136C159.261 6.864 159.845 6.688 160.453 6.608C161.077 6.528 161.693 6.56 162.301 6.704C163.117 6.88 163.797 7.208 164.341 7.688C164.901 8.168 165.301 8.808 165.541 9.608C165.733 10.248 165.773 10.856 165.661 11.432C165.565 11.992 165.357 12.512 165.037 12.992C164.717 13.456 164.309 13.864 163.813 14.216C163.333 14.568 162.813 14.848 162.253 15.056C161.693 15.248 161.117 15.36 160.525 15.392C159.933 15.424 159.365 15.344 158.821 15.152ZM160.645 9.872C160.037 10.112 159.653 10.416 159.493 10.784C159.333 11.136 159.317 11.456 159.445 11.744C159.589 12.016 159.845 12.216 160.213 12.344C160.581 12.456 161.005 12.392 161.485 12.152C161.853 11.96 162.109 11.712 162.253 11.408C162.413 11.104 162.453 10.824 162.373 10.568C162.309 10.296 162.125 10.088 161.821 9.944C161.533 9.784 161.141 9.76 160.645 9.872ZM166.975 4.592C166.975 4.32 166.999 4.048 167.047 3.776C167.127 3.392 167.287 3.064 167.527 2.792C167.783 2.52 168.087 2.352 168.439 2.288C169.287 2.144 169.927 2.416 170.359 3.104C170.487 3.312 170.591 3.528 170.671 3.752C170.767 3.96 170.847 4.176 170.911 4.4C171.167 5.312 171.359 6.232 171.487 7.16C171.615 8.072 171.719 9 171.799 9.944C171.879 11.048 171.951 12.144 172.015 13.232C172.079 14.32 172.151 15.416 172.231 16.52C172.295 17.496 172.119 18.44 171.703 19.352C171.543 19.688 171.327 19.944 171.055 20.12C170.799 20.312 170.527 20.424 170.239 20.456C169.951 20.488 169.655 20.44 169.351 20.312C169.063 20.184 168.807 19.976 168.583 19.688C168.311 19.352 168.087 18.992 167.911 18.608C167.735 18.224 167.631 17.816 167.599 17.384C167.551 16.872 167.503 16.352 167.455 15.824C167.423 15.296 167.391 14.768 167.359 14.24C167.247 12.496 167.135 10.84 167.023 9.272C166.927 7.704 166.911 6.144 166.975 4.592ZM173.807 10.904C173.823 10.216 173.991 9.712 174.311 9.392C174.631 9.072 174.983 8.912 175.367 8.912C175.767 8.912 176.143 9.064 176.495 9.368C176.863 9.672 177.095 10.096 177.191 10.64C177.303 11.184 177.415 11.848 177.527 12.632C177.639 13.416 177.711 14.216 177.743 15.032C177.791 15.848 177.775 16.632 177.695 17.384C177.615 18.136 177.447 18.752 177.191 19.232C176.999 19.536 176.775 19.768 176.519 19.928C176.279 20.088 176.023 20.168 175.751 20.168C175.479 20.168 175.215 20.096 174.959 19.952C174.703 19.792 174.479 19.56 174.287 19.256C174.063 18.888 173.903 18.512 173.807 18.128C173.727 17.728 173.687 17.32 173.687 16.904C173.719 15.848 173.735 14.84 173.735 13.88C173.751 12.904 173.775 11.912 173.807 10.904ZM175.055 4.4C175.567 4.4 175.991 4.576 176.327 4.928C176.679 5.28 176.847 5.712 176.831 6.224C176.831 6.72 176.647 7.144 176.279 7.496C175.927 7.848 175.503 8.024 175.007 8.024C174.511 8.008 174.087 7.816 173.735 7.448C173.383 7.08 173.207 6.656 173.207 6.176C173.223 5.664 173.407 5.24 173.759 4.904C174.127 4.552 174.559 4.384 175.055 4.4ZM182.76 7.76C182.936 7.6 183.096 7.456 183.24 7.328C183.4 7.184 183.552 7.048 183.696 6.92C184.24 6.488 184.824 6.176 185.448 5.984C186.088 5.776 186.72 5.696 187.344 5.744C187.984 5.792 188.6 5.96 189.192 6.248C189.8 6.52 190.336 6.912 190.8 7.424C191.264 7.936 191.616 8.496 191.856 9.104C192.096 9.696 192.272 10.328 192.384 11C192.56 11.976 192.64 12.952 192.624 13.928C192.608 14.888 192.56 15.856 192.48 16.832C192.464 17.008 192.448 17.184 192.432 17.36C192.432 17.536 192.416 17.712 192.384 17.888C192.32 18.576 192.024 19.184 191.496 19.712C190.984 20.192 190.424 20.4 189.816 20.336C189.224 20.288 188.72 19.984 188.304 19.424C187.888 18.816 187.704 18.16 187.752 17.456C187.784 16.688 187.816 15.936 187.848 15.2C187.88 14.464 187.912 13.712 187.944 12.944C187.96 12.624 187.96 12.304 187.944 11.984C187.944 11.648 187.928 11.32 187.896 11C187.864 10.728 187.8 10.472 187.704 10.232C187.624 9.992 187.432 9.824 187.128 9.728C186.84 9.632 186.552 9.648 186.264 9.776C185.992 9.888 185.728 10.064 185.472 10.304C185.232 10.544 185.008 10.832 184.8 11.168C184.592 11.504 184.408 11.848 184.248 12.2C184.104 12.536 183.992 12.872 183.912 13.208C183.848 13.528 183.824 13.792 183.84 14C183.856 14.416 183.872 14.752 183.888 15.008C183.904 15.264 183.92 15.504 183.936 15.728C183.968 15.936 183.992 16.168 184.008 16.424C184.04 16.68 184.072 17.016 184.104 17.432C184.136 17.928 184.088 18.384 183.96 18.8C183.832 19.216 183.56 19.584 183.144 19.904C182.744 20.208 182.336 20.36 181.92 20.36C181.504 20.376 181.12 20.28 180.768 20.072C180.416 19.864 180.112 19.584 179.856 19.232C179.6 18.864 179.432 18.456 179.352 18.008C179.192 17.224 179.104 16.44 179.088 15.656C179.072 14.856 179.088 14.056 179.136 13.256C179.2 12.44 179.28 11.632 179.376 10.832C179.472 10.016 179.544 9.2 179.592 8.384C179.608 8.256 179.624 8.136 179.64 8.024C179.672 7.896 179.712 7.768 179.76 7.64C179.856 7.384 180 7.176 180.192 7.016C180.4 6.84 180.624 6.728 180.864 6.68C181.104 6.632 181.344 6.648 181.584 6.728C181.84 6.792 182.064 6.928 182.256 7.136C182.352 7.216 182.432 7.312 182.496 7.424C182.576 7.52 182.664 7.632 182.76 7.76ZM203.51 17.84C203.238 17.92 202.99 18 202.766 18.08C202.542 18.144 202.318 18.216 202.094 18.296C201.55 18.472 200.958 18.576 200.318 18.608C199.678 18.64 199.03 18.576 198.374 18.416C197.718 18.24 197.078 17.968 196.454 17.6C195.846 17.216 195.302 16.712 194.822 16.088C194.198 15.272 193.838 14.432 193.742 13.568C193.662 12.704 193.798 11.816 194.15 10.904C194.71 9.448 195.526 8.336 196.598 7.568C197.67 6.8 198.966 6.312 200.486 6.104C201.03 6.04 201.646 6.048 202.334 6.128C203.038 6.208 203.71 6.376 204.35 6.632C205.006 6.872 205.582 7.2 206.078 7.616C206.59 8.032 206.926 8.536 207.086 9.128C207.278 9.832 207.422 10.536 207.518 11.24C207.614 11.928 207.678 12.632 207.71 13.352C207.758 14.456 207.75 15.544 207.686 16.616C207.622 17.688 207.478 18.76 207.254 19.832C207.062 20.696 206.75 21.472 206.318 22.16C205.886 22.864 205.342 23.496 204.686 24.056C204.206 24.488 203.678 24.808 203.102 25.016C202.526 25.224 201.918 25.368 201.278 25.448C200.366 25.56 199.486 25.504 198.638 25.28C197.79 25.056 196.982 24.688 196.214 24.176C195.606 23.76 195.118 23.272 194.75 22.712C194.398 22.152 194.19 21.496 194.126 20.744C194.078 20.392 194.102 20.072 194.198 19.784C194.262 19.544 194.366 19.352 194.51 19.208C194.654 19.048 194.822 18.936 195.014 18.872C195.206 18.808 195.398 18.8 195.59 18.848C195.798 18.88 195.998 18.976 196.19 19.136C196.606 19.488 196.95 19.88 197.222 20.312C197.43 20.648 197.686 20.92 197.99 21.128C198.294 21.352 198.622 21.504 198.974 21.584C199.342 21.68 199.726 21.704 200.126 21.656C200.526 21.624 200.926 21.52 201.326 21.344C201.55 21.232 201.718 21.12 201.83 21.008C202.294 20.592 202.654 20.12 202.91 19.592C203.166 19.064 203.366 18.48 203.51 17.84ZM200.174 10.304C199.87 10.432 199.566 10.648 199.262 10.952C198.958 11.24 198.71 11.576 198.518 11.96C198.326 12.328 198.214 12.704 198.182 13.088C198.15 13.456 198.246 13.776 198.47 14.048C198.822 14.464 199.214 14.736 199.646 14.864C200.094 14.992 200.574 15.008 201.086 14.912C201.566 14.816 202.038 14.712 202.502 14.6C202.982 14.488 203.462 14.376 203.942 14.264C203.99 14.056 204.014 13.736 204.014 13.304C204.03 12.872 204.022 12.416 203.99 11.936C203.958 11.344 203.838 10.888 203.63 10.568C203.422 10.248 203.142 10.04 202.79 9.944C202.454 9.832 202.062 9.816 201.614 9.896C201.166 9.96 200.686 10.096 200.174 10.304ZM210.404 19.64C209.924 19.64 209.524 19.48 209.204 19.16C208.884 18.824 208.732 18.424 208.748 17.96C208.764 17.496 208.932 17.104 209.252 16.784C209.572 16.464 209.964 16.312 210.428 16.328C210.876 16.328 211.268 16.496 211.604 16.832C211.94 17.152 212.1 17.544 212.084 18.008C212.068 18.472 211.9 18.864 211.58 19.184C211.26 19.488 210.868 19.64 210.404 19.64ZM214.632 19.64C214.152 19.64 213.752 19.48 213.432 19.16C213.112 18.824 212.96 18.424 212.976 17.96C212.992 17.496 213.16 17.104 213.48 16.784C213.8 16.464 214.192 16.312 214.656 16.328C215.104 16.328 215.496 16.496 215.832 16.832C216.168 17.152 216.328 17.544 216.312 18.008C216.296 18.472 216.128 18.864 215.808 19.184C215.488 19.488 215.096 19.64 214.632 19.64ZM218.86 19.64C218.38 19.64 217.98 19.48 217.66 19.16C217.34 18.824 217.188 18.424 217.204 17.96C217.22 17.496 217.388 17.104 217.708 16.784C218.028 16.464 218.42 16.312 218.884 16.328C219.332 16.328 219.724 16.496 220.06 16.832C220.396 17.152 220.556 17.544 220.54 18.008C220.524 18.472 220.356 18.864 220.036 19.184C219.716 19.488 219.324 19.64 218.86 19.64Z" fill="white"/>
<path d="M17.7003 84.1565C18.327 86.4125 19.643 87.9792 21.6483 88.8565C26.5363 91.0499 31.0483 90.5799 35.1843 87.4465C35.6857 87.0705 36.1557 86.6945 36.5943 86.3185C37.033 85.9425 37.503 85.5979 38.0043 85.2845C40.0097 84.0312 41.827 84.0312 43.4563 85.2845C45.0857 86.4752 45.587 88.2299 44.9603 90.5485C44.2083 93.1805 42.9237 95.3425 41.1063 97.0345C35.341 102.487 28.761 104.241 21.3663 102.299C15.7263 100.857 11.3083 98.1625 8.11232 94.2145C4.97899 90.2665 3.25565 85.3472 2.94232 79.4565C2.75432 76.4485 2.97365 73.5345 3.60032 70.7145C4.28965 67.8945 5.35499 65.1685 6.79632 62.5365C7.92432 60.3432 9.39699 58.4319 11.2143 56.8025C13.0317 55.1105 15.037 53.7632 17.2303 52.7605C19.4237 51.6952 21.711 51.0059 24.0923 50.6925C26.5363 50.3792 28.949 50.5045 31.3303 51.0685C34.5263 51.7579 37.1897 53.0425 39.3203 54.9225C41.5137 56.8025 43.0803 59.3092 44.0203 62.4425C44.7723 64.9492 44.929 67.3305 44.4903 69.5865C44.1143 71.7799 43.2997 73.8165 42.0463 75.6965C40.793 77.5139 39.195 79.1119 37.2523 80.4905C35.3723 81.8692 33.3357 82.9659 31.1423 83.7805C28.949 84.5325 26.693 84.9712 24.3743 85.0965C22.0557 85.2219 19.831 84.9085 17.7003 84.1565ZM24.8443 63.4765C22.463 64.4165 20.959 65.6072 20.3323 67.0485C19.7057 68.4272 19.643 69.6805 20.1443 70.8085C20.7083 71.8739 21.711 72.6572 23.1523 73.1585C24.5937 73.5972 26.2543 73.3465 28.1343 72.4065C29.5757 71.6545 30.5783 70.6832 31.1423 69.4925C31.769 68.3019 31.9257 67.2052 31.6123 66.2025C31.3617 65.1372 30.641 64.3225 29.4503 63.7585C28.3223 63.1319 26.787 63.0379 24.8443 63.4765ZM72.5721 62.4425C73.2614 61.6279 73.8881 60.8759 74.4521 60.1865C75.0788 59.4972 75.6741 58.8079 76.2381 58.1185C79.1208 54.4212 82.5988 51.2879 86.6721 48.7185C87.3614 48.2172 88.1134 47.7785 88.9281 47.4025C89.7428 47.0265 90.5888 46.7445 91.4661 46.5565C92.5941 46.3059 93.6908 46.3685 94.7561 46.7445C95.8214 47.0579 96.7301 47.5905 97.4821 48.3425C98.2341 49.0945 98.7668 50.0032 99.0801 51.0685C99.3934 52.1339 99.4248 53.2619 99.1741 54.4525C98.9861 55.3299 98.6728 56.1759 98.2341 56.9905C97.8581 57.7425 97.4508 58.4945 97.0121 59.2465C95.4454 61.6905 93.7221 64.0092 91.8421 66.2025C89.9621 68.3959 88.0194 70.5265 86.0141 72.5945C85.5128 73.0959 84.9801 73.6285 84.4161 74.1925C83.9148 74.6939 83.4134 75.1952 82.9121 75.6965C83.6014 76.7619 84.2281 77.7959 84.7921 78.7985C85.4188 79.7385 86.0141 80.6785 86.5781 81.6185C88.9594 85.2532 90.6201 89.3265 91.5601 93.8385C91.6228 94.0892 91.6854 94.3399 91.7481 94.5905C91.8108 94.7785 91.8734 94.9979 91.9361 95.2485C92.1241 96.7525 91.9674 98.0999 91.4661 99.2905C90.9648 100.481 90.1501 101.39 89.0221 102.017C87.8941 102.706 86.6721 102.957 85.3561 102.769C84.1028 102.581 82.8808 101.954 81.6901 100.889C80.0608 99.4472 78.5568 97.9119 77.1781 96.2825C75.8621 94.6532 74.7341 92.8359 73.7941 90.8305C73.5434 90.3292 73.2614 89.8592 72.9481 89.4205C72.6974 88.9192 72.4154 88.3552 72.1021 87.7285C71.7888 88.0419 71.4754 88.3239 71.1621 88.5745C70.8488 88.7625 70.5981 89.0132 70.4101 89.3265C69.3448 90.6425 68.2794 91.9585 67.2141 93.2745C66.2114 94.5905 65.1774 95.8752 64.1121 97.1285C63.4228 97.8805 62.7334 98.6325 62.0441 99.3845C61.3548 100.137 60.6028 100.826 59.7881 101.453C58.7854 102.142 57.7514 102.549 56.6861 102.675C55.6208 102.8 54.5241 102.518 53.3961 101.829C52.4561 101.202 51.7354 100.325 51.2341 99.1965C50.7954 98.0685 50.7328 96.8779 51.0461 95.6245C51.3594 94.4965 51.7041 93.3999 52.0801 92.3345C52.5188 91.2065 53.0201 90.1412 53.5841 89.1385C54.9001 86.9452 56.2474 84.8145 57.6261 82.7465C59.0048 80.6159 60.3834 78.4539 61.7621 76.2605C62.1381 75.7592 62.5141 75.2579 62.8901 74.7565C63.2661 74.1925 63.7048 73.6285 64.2061 73.0645C63.8301 72.4379 63.4541 71.8425 63.0781 71.2785C62.7648 70.7145 62.4201 70.1505 62.0441 69.5865C61.1041 68.2705 60.1641 66.9545 59.2241 65.6385C58.2841 64.3225 57.3754 63.0065 56.4981 61.6905C56.1221 61.1892 55.7461 60.6565 55.3701 60.0925C55.0568 59.5285 54.7748 58.9645 54.5241 58.4005C54.0228 57.3979 53.8348 56.4579 53.9601 55.5805C54.1481 54.6405 54.6181 53.7945 55.3701 53.0425C56.1221 52.2279 56.9681 51.7579 57.9081 51.6325C58.8481 51.4445 59.7881 51.5699 60.7281 52.0085C62.2948 52.7605 63.7361 53.7319 65.0521 54.9225C66.3054 56.1132 67.5274 57.3352 68.7181 58.5885C69.9714 59.8419 71.2561 61.1265 72.5721 62.4425ZM133.039 49.4705C134.982 49.8465 136.768 50.4732 138.397 51.3505C140.026 52.2279 141.374 53.4499 142.439 55.0165C143.504 56.7085 143.692 58.4005 143.003 60.0925C142.376 61.7845 141.092 62.8812 139.149 63.3825C138.272 63.6332 137.363 63.8212 136.423 63.9465C135.483 64.0719 134.543 64.0405 133.603 63.8525C130.532 63.1632 127.994 63.5079 125.989 64.8865C123.984 66.2025 122.511 68.0512 121.571 70.4325C120.631 72.8139 120.192 75.4459 120.255 78.3285C120.318 81.2112 120.882 83.8119 121.947 86.1305C122.887 87.8225 123.952 88.9192 125.143 89.4205C126.396 89.8592 127.681 89.9532 128.997 89.7025C130.313 89.3892 131.598 88.8252 132.851 88.0105C134.167 87.1959 135.358 86.3499 136.423 85.4725C138.679 83.8432 140.684 83.0285 142.439 83.0285C144.256 83.0285 145.604 83.5612 146.481 84.6265C147.421 85.6919 147.797 87.1332 147.609 88.9505C147.484 90.7679 146.606 92.6479 144.977 94.5905C142.533 97.2852 139.776 99.3845 136.705 100.889C133.697 102.393 130.344 103.176 126.647 103.239C122.323 103.239 118.5 102.267 115.179 100.325C111.92 98.3819 109.32 95.3739 107.377 91.3005C105.873 88.2299 104.996 84.9712 104.745 81.5245C104.494 78.0152 104.714 74.5999 105.403 71.2785C106.155 67.8945 107.346 64.7299 108.975 61.7845C110.667 58.7765 112.704 56.2385 115.085 54.1705C117.466 52.1025 120.161 50.6299 123.169 49.7525C126.24 48.8125 129.53 48.7185 133.039 49.4705ZM154.53 67.5185C154.592 64.8239 155.25 62.8499 156.504 61.5965C157.757 60.3432 159.136 59.7165 160.64 59.7165C162.206 59.7165 163.679 60.3119 165.058 61.5025C166.499 62.6932 167.408 64.3539 167.784 66.4845C168.222 68.6152 168.661 71.2159 169.1 74.2865C169.538 77.3572 169.82 80.4905 169.946 83.6865C170.134 86.8825 170.071 89.9532 169.758 92.8985C169.444 95.8439 168.786 98.2565 167.784 100.137C167.032 101.327 166.154 102.236 165.152 102.863C164.212 103.489 163.209 103.803 162.144 103.803C161.078 103.803 160.044 103.521 159.042 102.957C158.039 102.33 157.162 101.421 156.41 100.231C155.532 98.7892 154.906 97.3165 154.53 95.8125C154.216 94.2459 154.06 92.6479 154.06 91.0185C154.185 86.8825 154.248 82.9345 154.248 79.1745C154.31 75.3519 154.404 71.4665 154.53 67.5185ZM159.418 42.0445C161.423 42.0445 163.084 42.7339 164.4 44.1125C165.778 45.4912 166.436 47.1832 166.374 49.1885C166.374 51.1312 165.653 52.7919 164.212 54.1705C162.833 55.5492 161.172 56.2385 159.23 56.2385C157.287 56.1759 155.626 55.4239 154.248 53.9825C152.869 52.5412 152.18 50.8805 152.18 49.0005C152.242 46.9952 152.963 45.3345 154.342 44.0185C155.783 42.6399 157.475 41.9819 159.418 42.0445ZM193.264 71.4665C192.262 71.4039 191.322 71.3725 190.444 71.3725C189.567 71.3099 188.69 71.2159 187.812 71.0905C186.622 70.9652 185.431 70.8712 184.24 70.8085C183.05 70.7459 181.89 70.6205 180.762 70.4325C179.07 70.1192 177.754 69.4925 176.814 68.5525C175.874 67.6125 175.467 66.5472 175.592 65.3565C175.718 64.2912 176.219 63.3512 177.096 62.5365C177.974 61.6592 179.227 61.0952 180.856 60.8445C182.987 60.5312 185.118 60.2805 187.248 60.0925C189.379 59.9045 191.572 59.6539 193.828 59.3405C193.954 57.9619 194.079 56.5519 194.204 55.1105C194.392 53.6692 194.58 52.2279 194.768 50.7865C194.894 49.9719 195.019 49.1572 195.144 48.3425C195.27 47.4652 195.426 46.6192 195.614 45.8045C196.053 44.1125 196.899 42.7965 198.152 41.8565C199.406 40.8539 200.91 40.3525 202.664 40.3525C204.356 40.3525 205.829 40.8539 207.082 41.8565C208.398 42.7965 209.244 44.1125 209.62 45.8045C209.996 47.8099 210.31 49.8779 210.56 52.0085C210.811 54.0765 211.093 56.2072 211.406 58.4005C212.096 58.3379 212.785 58.3065 213.474 58.3065C214.226 58.2439 214.978 58.1812 215.73 58.1185C217.046 58.0559 218.362 57.9932 219.678 57.9305C220.994 57.8679 222.31 57.8365 223.626 57.8365C225.193 57.8365 226.666 58.1812 228.044 58.8705C229.862 59.6225 230.864 60.7819 231.052 62.3485C231.303 63.8525 230.708 65.1999 229.266 66.3905C228.64 66.8919 227.919 67.3305 227.104 67.7065C226.352 68.0825 225.569 68.3645 224.754 68.5525C222.624 69.1165 220.462 69.6179 218.268 70.0565C216.138 70.4325 213.882 70.8712 211.5 71.3725C211.5 71.8739 211.532 72.3752 211.594 72.8765C211.657 73.3779 211.626 73.8792 211.5 74.3805C211.5 77.5139 211.532 80.6472 211.594 83.7805C211.657 86.8512 211.532 89.9532 211.218 93.0865C211.093 94.4025 210.842 95.8125 210.466 97.3165C210.09 98.8205 209.558 100.262 208.868 101.641C208.242 102.957 207.396 104.085 206.33 105.025C205.328 106.027 204.106 106.623 202.664 106.811C200.596 106.999 198.904 106.591 197.588 105.589C196.335 104.649 195.364 103.395 194.674 101.829C193.985 100.199 193.515 98.4759 193.264 96.6585C193.076 94.7785 192.951 93.0865 192.888 91.5825C192.763 88.8252 192.763 86.0679 192.888 83.3105C193.014 80.5532 193.139 77.7645 193.264 74.9445V71.4665ZM251.507 84.1565C252.134 86.4125 253.45 87.9792 255.455 88.8565C260.343 91.0499 264.855 90.5799 268.991 87.4465C269.492 87.0705 269.962 86.6945 270.401 86.3185C270.84 85.9425 271.31 85.5979 271.811 85.2845C273.816 84.0312 275.634 84.0312 277.263 85.2845C278.892 86.4752 279.394 88.2299 278.767 90.5485C278.015 93.1805 276.73 95.3425 274.913 97.0345C269.148 102.487 262.568 104.241 255.173 102.299C249.533 100.857 245.115 98.1625 241.919 94.2145C238.786 90.2665 237.062 85.3472 236.749 79.4565C236.561 76.4485 236.78 73.5345 237.407 70.7145C238.096 67.8945 239.162 65.1685 240.603 62.5365C241.731 60.3432 243.204 58.4319 245.021 56.8025C246.838 55.1105 248.844 53.7632 251.037 52.7605C253.23 51.6952 255.518 51.0059 257.899 50.6925C260.343 50.3792 262.756 50.5045 265.137 51.0685C268.333 51.7579 270.996 53.0425 273.127 54.9225C275.32 56.8025 276.887 59.3092 277.827 62.4425C278.579 64.9492 278.736 67.3305 278.297 69.5865C277.921 71.7799 277.106 73.8165 275.853 75.6965C274.6 77.5139 273.002 79.1119 271.059 80.4905C269.179 81.8692 267.142 82.9659 264.949 83.7805C262.756 84.5325 260.5 84.9712 258.181 85.0965C255.862 85.2219 253.638 84.9085 251.507 84.1565ZM258.651 63.4765C256.27 64.4165 254.766 65.6072 254.139 67.0485C253.512 68.4272 253.45 69.6805 253.951 70.8085C254.515 71.8739 255.518 72.6572 256.959 73.1585C258.4 73.5972 260.061 73.3465 261.941 72.4065C263.382 71.6545 264.385 70.6832 264.949 69.4925C265.576 68.3019 265.732 67.2052 265.419 66.2025C265.168 65.1372 264.448 64.3225 263.257 63.7585C262.129 63.1319 260.594 63.0379 258.651 63.4765ZM320.761 52.4785C320.761 51.9772 320.729 51.4759 320.667 50.9745C320.667 50.4732 320.698 49.9405 320.761 49.3765C320.823 46.8699 320.886 44.3945 320.949 41.9505C321.011 39.4439 321.105 36.9372 321.231 34.4305C321.293 33.7412 321.387 33.0519 321.513 32.3625C321.701 31.6105 321.92 30.8899 322.171 30.2005C322.672 29.0725 323.33 28.1952 324.145 27.5685C325.022 26.8792 326.087 26.5345 327.341 26.5345C330.035 26.4092 331.821 27.5685 332.699 30.0125C333.639 32.7072 334.265 35.4332 334.579 38.1905C335.268 43.7052 335.895 49.2199 336.459 54.7345C337.085 60.1865 337.587 65.6699 337.963 71.1845C338.213 74.4432 338.276 77.7019 338.151 80.9605C338.088 84.1565 337.963 87.3525 337.775 90.5485C337.587 93.3685 336.553 95.6245 334.673 97.3165C332.855 99.0085 330.662 100.356 328.093 101.359C323.894 102.925 319.382 103.74 314.557 103.803C309.731 103.865 305.219 103.113 301.021 101.547C296.822 99.9172 293.25 97.4105 290.305 94.0265C287.359 90.6425 285.636 86.2872 285.135 80.9605C284.633 75.3205 285.667 70.1192 288.237 65.3565C290.806 60.5939 294.817 56.8025 300.269 53.9825C303.277 52.4785 306.347 51.5699 309.481 51.2565C312.614 50.9432 315.81 51.3192 319.069 52.3845L320.197 52.6665C320.259 52.6665 320.322 52.6665 320.385 52.6665C320.447 52.6039 320.573 52.5412 320.761 52.4785ZM321.419 88.6685C321.669 87.4779 321.92 85.7859 322.171 83.5925C322.484 81.3365 322.578 79.0805 322.453 76.8245C322.39 74.5685 322.045 72.5319 321.419 70.7145C320.855 68.8345 319.852 67.6752 318.411 67.2365C315.027 66.2965 311.956 66.4219 309.199 67.6125C306.441 68.8032 304.279 70.7145 302.713 73.3465C300.895 76.5425 300.331 79.5505 301.021 82.3705C301.71 85.1905 303.935 87.4152 307.695 89.0445C309.7 89.9219 311.956 90.2979 314.463 90.1725C316.969 90.0472 319.288 89.5459 321.419 88.6685Z" fill="#3A84F0"/>
<path d="M243.015 261.653C234.29 275.859 211.036 300.012 173.918 303.449C157.929 304.929 144.661 300.693 134.077 294.018C118.166 283.982 108.323 268.434 104.428 258.512C105.045 254.342 110.728 248.505 113.693 258.512C116.042 266.438 117.632 272.597 134.077 281.509C143.584 286.662 159.285 294.762 173.918 294.018C188.192 293.292 202.543 288.636 213.296 281.509C224.499 274.085 232.149 266.952 237.343 258.632C238.202 257.257 239.902 256.628 241.415 257.21C243.22 257.904 244.028 260.005 243.015 261.653Z" fill="white"/>
<path d="M68.2022 189.009C73.3734 182.262 82.7925 181.308 86.8556 181.675C88.7025 181.308 94.5386 182.262 103.108 189.009C113.82 197.443 108.962 211.982 106.746 219.132L63.1973 215.889C60.7963 207.639 61.7382 197.443 68.2022 189.009Z" fill="white"/>
<path d="M274.8 189.009C269.629 182.262 260.209 181.308 256.146 181.675C254.299 181.308 248.463 182.262 239.894 189.009C229.182 197.443 234.04 211.982 236.256 219.132L279.805 215.889C282.206 207.639 281.264 197.443 274.8 189.009Z" fill="white"/>
<path d="M66.5425 168.884C66.7243 166.733 68.5234 165.08 70.6822 165.08L77.5569 165.079C77.8663 165.079 78.1751 165.108 78.4792 165.165L87.1756 166.797L96.59 168.44C96.8738 168.489 97.1614 168.514 97.4495 168.514L102.966 168.514C105.399 168.514 107.311 170.595 107.106 173.019V173.019C106.924 175.17 105.125 176.823 102.966 176.823L96.4551 176.823C96.2117 176.823 95.9687 176.805 95.728 176.77L84.5078 175.121L76.672 173.493C76.3375 173.424 75.9968 173.389 75.6552 173.389L70.6824 173.389C68.2497 173.389 66.3375 171.308 66.5425 168.884V168.884Z" fill="white"/>
<path d="M231.817 166.688C230.439 165.026 230.563 162.586 232.103 161.073L237.005 156.254C237.226 156.037 237.466 155.841 237.723 155.668L245.069 150.736L252.935 145.309C253.172 145.145 253.395 144.961 253.6 144.759L257.535 140.892C259.27 139.187 262.092 139.33 263.645 141.203V141.203C265.023 142.864 264.899 145.305 263.359 146.818L258.715 151.382C258.542 151.553 258.356 151.71 258.16 151.854L249.002 158.543L242.272 162.875C241.985 163.06 241.718 163.274 241.474 163.513L237.927 166.999C236.192 168.704 233.37 168.56 231.817 166.688V166.688Z" fill="white"/>
</svg>
