<svg width="364" height="273" viewBox="0 0 364 273" fill="none" xmlns="http://www.w3.org/2000/svg">
<path d="M146.851 18.296C146.899 18.808 146.947 19.312 146.995 19.808C147.043 20.288 147.091 20.768 147.139 21.248C147.171 21.536 147.195 21.824 147.211 22.112C147.227 22.4 147.227 22.68 147.211 22.952C147.195 23.64 146.907 24.232 146.347 24.728C145.979 25.08 145.563 25.264 145.099 25.28C144.651 25.296 144.227 25.144 143.827 24.824C143.091 24.2 142.723 23.408 142.723 22.448C142.723 21.872 142.731 21.296 142.747 20.72C142.763 20.144 142.779 19.568 142.795 18.992V18.152C142.587 18.104 142.379 18.048 142.171 17.984C141.979 17.92 141.803 17.84 141.643 17.744C141.499 17.632 141.379 17.496 141.283 17.336C141.203 17.16 141.171 16.944 141.187 16.688C141.203 16.192 141.371 15.856 141.691 15.68C142.011 15.504 142.371 15.376 142.771 15.296C142.787 15.232 142.803 15.184 142.819 15.152C142.835 15.104 142.843 15.056 142.843 15.008C142.843 14.064 142.851 13.128 142.867 12.2C142.883 11.256 142.867 10.312 142.819 9.368C142.787 8.568 142.971 7.912 143.371 7.4C143.771 6.872 144.355 6.528 145.123 6.368C145.843 6.208 146.563 6.12 147.283 6.104C148.003 6.072 148.723 6.08 149.443 6.128C149.811 6.144 150.171 6.176 150.523 6.224C150.875 6.272 151.235 6.32 151.603 6.368C151.699 6.368 151.827 6.384 151.987 6.416C152.451 6.544 152.827 6.76 153.115 7.064C153.403 7.352 153.563 7.688 153.595 8.072C153.627 8.472 153.531 8.832 153.307 9.152C153.099 9.472 152.763 9.728 152.299 9.92C151.739 10.176 151.171 10.352 150.595 10.448C150.019 10.544 149.427 10.632 148.819 10.712C148.467 10.744 148.115 10.776 147.763 10.808C147.427 10.824 147.075 10.848 146.707 10.88C146.627 11.536 146.603 12.184 146.635 12.824C146.667 13.464 146.691 14.128 146.707 14.816C147.043 14.784 147.363 14.76 147.667 14.744C147.987 14.712 148.299 14.696 148.603 14.696C148.971 14.696 149.339 14.696 149.707 14.696C150.091 14.68 150.467 14.704 150.835 14.768C151.331 14.848 151.707 15.024 151.963 15.296C152.219 15.568 152.363 15.888 152.395 16.256C152.427 16.608 152.331 16.928 152.107 17.216C151.883 17.504 151.539 17.728 151.075 17.888C150.851 17.968 150.619 18.032 150.379 18.08C150.155 18.112 149.931 18.144 149.707 18.176C149.371 18.208 149.035 18.224 148.699 18.224C148.363 18.208 148.019 18.208 147.667 18.224C147.459 18.224 147.187 18.248 146.851 18.296ZM158.164 15.152C158.324 15.728 158.66 16.128 159.172 16.352C160.42 16.912 161.572 16.792 162.628 15.992C162.756 15.896 162.876 15.8 162.988 15.704C163.1 15.608 163.22 15.52 163.348 15.44C163.86 15.12 164.324 15.12 164.74 15.44C165.156 15.744 165.284 16.192 165.124 16.784C164.932 17.456 164.604 18.008 164.14 18.44C162.668 19.832 160.988 20.28 159.1 19.784C157.66 19.416 156.532 18.728 155.716 17.72C154.916 16.712 154.476 15.456 154.396 13.952C154.348 13.184 154.404 12.44 154.564 11.72C154.74 11 155.012 10.304 155.38 9.632C155.668 9.072 156.044 8.584 156.508 8.168C156.972 7.736 157.484 7.392 158.044 7.136C158.604 6.864 159.188 6.688 159.796 6.608C160.42 6.528 161.036 6.56 161.644 6.704C162.46 6.88 163.14 7.208 163.684 7.688C164.244 8.168 164.644 8.808 164.884 9.608C165.076 10.248 165.116 10.856 165.004 11.432C164.908 11.992 164.7 12.512 164.38 12.992C164.06 13.456 163.652 13.864 163.156 14.216C162.676 14.568 162.156 14.848 161.596 15.056C161.036 15.248 160.46 15.36 159.868 15.392C159.276 15.424 158.708 15.344 158.164 15.152ZM159.988 9.872C159.38 10.112 158.996 10.416 158.836 10.784C158.676 11.136 158.66 11.456 158.788 11.744C158.932 12.016 159.188 12.216 159.556 12.344C159.924 12.456 160.348 12.392 160.828 12.152C161.196 11.96 161.452 11.712 161.596 11.408C161.756 11.104 161.796 10.824 161.716 10.568C161.652 10.296 161.468 10.088 161.164 9.944C160.876 9.784 160.484 9.76 159.988 9.872ZM169.821 15.152C169.981 15.728 170.317 16.128 170.829 16.352C172.077 16.912 173.229 16.792 174.285 15.992C174.413 15.896 174.533 15.8 174.645 15.704C174.757 15.608 174.877 15.52 175.005 15.44C175.517 15.12 175.981 15.12 176.397 15.44C176.813 15.744 176.941 16.192 176.781 16.784C176.589 17.456 176.261 18.008 175.797 18.44C174.325 19.832 172.645 20.28 170.757 19.784C169.317 19.416 168.189 18.728 167.373 17.72C166.573 16.712 166.133 15.456 166.053 13.952C166.005 13.184 166.061 12.44 166.221 11.72C166.397 11 166.669 10.304 167.037 9.632C167.325 9.072 167.701 8.584 168.165 8.168C168.629 7.736 169.141 7.392 169.701 7.136C170.261 6.864 170.845 6.688 171.453 6.608C172.077 6.528 172.693 6.56 173.301 6.704C174.117 6.88 174.797 7.208 175.341 7.688C175.901 8.168 176.301 8.808 176.541 9.608C176.733 10.248 176.773 10.856 176.661 11.432C176.565 11.992 176.357 12.512 176.037 12.992C175.717 13.456 175.309 13.864 174.813 14.216C174.333 14.568 173.813 14.848 173.253 15.056C172.693 15.248 172.117 15.36 171.525 15.392C170.933 15.424 170.365 15.344 169.821 15.152ZM171.645 9.872C171.037 10.112 170.653 10.416 170.493 10.784C170.333 11.136 170.317 11.456 170.445 11.744C170.589 12.016 170.845 12.216 171.213 12.344C171.581 12.456 172.005 12.392 172.485 12.152C172.853 11.96 173.109 11.712 173.253 11.408C173.413 11.104 173.453 10.824 173.373 10.568C173.309 10.296 173.125 10.088 172.821 9.944C172.533 9.784 172.141 9.76 171.645 9.872ZM177.975 4.592C177.975 4.32 177.999 4.048 178.047 3.776C178.127 3.392 178.287 3.064 178.527 2.792C178.783 2.52 179.087 2.352 179.439 2.288C180.287 2.144 180.927 2.416 181.359 3.104C181.487 3.312 181.591 3.528 181.671 3.752C181.767 3.96 181.847 4.176 181.911 4.4C182.167 5.312 182.359 6.232 182.487 7.16C182.615 8.072 182.719 9 182.799 9.944C182.879 11.048 182.951 12.144 183.015 13.232C183.079 14.32 183.151 15.416 183.231 16.52C183.295 17.496 183.119 18.44 182.703 19.352C182.543 19.688 182.327 19.944 182.055 20.12C181.799 20.312 181.527 20.424 181.239 20.456C180.951 20.488 180.655 20.44 180.351 20.312C180.063 20.184 179.807 19.976 179.583 19.688C179.311 19.352 179.087 18.992 178.911 18.608C178.735 18.224 178.631 17.816 178.599 17.384C178.551 16.872 178.503 16.352 178.455 15.824C178.423 15.296 178.391 14.768 178.359 14.24C178.247 12.496 178.135 10.84 178.023 9.272C177.927 7.704 177.911 6.144 177.975 4.592ZM184.807 10.904C184.823 10.216 184.991 9.712 185.311 9.392C185.631 9.072 185.983 8.912 186.367 8.912C186.767 8.912 187.143 9.064 187.495 9.368C187.863 9.672 188.095 10.096 188.191 10.64C188.303 11.184 188.415 11.848 188.527 12.632C188.639 13.416 188.711 14.216 188.743 15.032C188.791 15.848 188.775 16.632 188.695 17.384C188.615 18.136 188.447 18.752 188.191 19.232C187.999 19.536 187.775 19.768 187.519 19.928C187.279 20.088 187.023 20.168 186.751 20.168C186.479 20.168 186.215 20.096 185.959 19.952C185.703 19.792 185.479 19.56 185.287 19.256C185.063 18.888 184.903 18.512 184.807 18.128C184.727 17.728 184.687 17.32 184.687 16.904C184.719 15.848 184.735 14.84 184.735 13.88C184.751 12.904 184.775 11.912 184.807 10.904ZM186.055 4.4C186.567 4.4 186.991 4.576 187.327 4.928C187.679 5.28 187.847 5.712 187.831 6.224C187.831 6.72 187.647 7.144 187.279 7.496C186.927 7.848 186.503 8.024 186.007 8.024C185.511 8.008 185.087 7.816 184.735 7.448C184.383 7.08 184.207 6.656 184.207 6.176C184.223 5.664 184.407 5.24 184.759 4.904C185.127 4.552 185.559 4.384 186.055 4.4ZM193.76 7.76C193.936 7.6 194.096 7.456 194.24 7.328C194.4 7.184 194.552 7.048 194.696 6.92C195.24 6.488 195.824 6.176 196.448 5.984C197.088 5.776 197.72 5.696 198.344 5.744C198.984 5.792 199.6 5.96 200.192 6.248C200.8 6.52 201.336 6.912 201.8 7.424C202.264 7.936 202.616 8.496 202.856 9.104C203.096 9.696 203.272 10.328 203.384 11C203.56 11.976 203.64 12.952 203.624 13.928C203.608 14.888 203.56 15.856 203.48 16.832C203.464 17.008 203.448 17.184 203.432 17.36C203.432 17.536 203.416 17.712 203.384 17.888C203.32 18.576 203.024 19.184 202.496 19.712C201.984 20.192 201.424 20.4 200.816 20.336C200.224 20.288 199.72 19.984 199.304 19.424C198.888 18.816 198.704 18.16 198.752 17.456C198.784 16.688 198.816 15.936 198.848 15.2C198.88 14.464 198.912 13.712 198.944 12.944C198.96 12.624 198.96 12.304 198.944 11.984C198.944 11.648 198.928 11.32 198.896 11C198.864 10.728 198.8 10.472 198.704 10.232C198.624 9.992 198.432 9.824 198.128 9.728C197.84 9.632 197.552 9.648 197.264 9.776C196.992 9.888 196.728 10.064 196.472 10.304C196.232 10.544 196.008 10.832 195.8 11.168C195.592 11.504 195.408 11.848 195.248 12.2C195.104 12.536 194.992 12.872 194.912 13.208C194.848 13.528 194.824 13.792 194.84 14C194.856 14.416 194.872 14.752 194.888 15.008C194.904 15.264 194.92 15.504 194.936 15.728C194.968 15.936 194.992 16.168 195.008 16.424C195.04 16.68 195.072 17.016 195.104 17.432C195.136 17.928 195.088 18.384 194.96 18.8C194.832 19.216 194.56 19.584 194.144 19.904C193.744 20.208 193.336 20.36 192.92 20.36C192.504 20.376 192.12 20.28 191.768 20.072C191.416 19.864 191.112 19.584 190.856 19.232C190.6 18.864 190.432 18.456 190.352 18.008C190.192 17.224 190.104 16.44 190.088 15.656C190.072 14.856 190.088 14.056 190.136 13.256C190.2 12.44 190.28 11.632 190.376 10.832C190.472 10.016 190.544 9.2 190.592 8.384C190.608 8.256 190.624 8.136 190.64 8.024C190.672 7.896 190.712 7.768 190.76 7.64C190.856 7.384 191 7.176 191.192 7.016C191.4 6.84 191.624 6.728 191.864 6.68C192.104 6.632 192.344 6.648 192.584 6.728C192.84 6.792 193.064 6.928 193.256 7.136C193.352 7.216 193.432 7.312 193.496 7.424C193.576 7.52 193.664 7.632 193.76 7.76ZM214.51 17.84C214.238 17.92 213.99 18 213.766 18.08C213.542 18.144 213.318 18.216 213.094 18.296C212.55 18.472 211.958 18.576 211.318 18.608C210.678 18.64 210.03 18.576 209.374 18.416C208.718 18.24 208.078 17.968 207.454 17.6C206.846 17.216 206.302 16.712 205.822 16.088C205.198 15.272 204.838 14.432 204.742 13.568C204.662 12.704 204.798 11.816 205.15 10.904C205.71 9.448 206.526 8.336 207.598 7.568C208.67 6.8 209.966 6.312 211.486 6.104C212.03 6.04 212.646 6.048 213.334 6.128C214.038 6.208 214.71 6.376 215.35 6.632C216.006 6.872 216.582 7.2 217.078 7.616C217.59 8.032 217.926 8.536 218.086 9.128C218.278 9.832 218.422 10.536 218.518 11.24C218.614 11.928 218.678 12.632 218.71 13.352C218.758 14.456 218.75 15.544 218.686 16.616C218.622 17.688 218.478 18.76 218.254 19.832C218.062 20.696 217.75 21.472 217.318 22.16C216.886 22.864 216.342 23.496 215.686 24.056C215.206 24.488 214.678 24.808 214.102 25.016C213.526 25.224 212.918 25.368 212.278 25.448C211.366 25.56 210.486 25.504 209.638 25.28C208.79 25.056 207.982 24.688 207.214 24.176C206.606 23.76 206.118 23.272 205.75 22.712C205.398 22.152 205.19 21.496 205.126 20.744C205.078 20.392 205.102 20.072 205.198 19.784C205.262 19.544 205.366 19.352 205.51 19.208C205.654 19.048 205.822 18.936 206.014 18.872C206.206 18.808 206.398 18.8 206.59 18.848C206.798 18.88 206.998 18.976 207.19 19.136C207.606 19.488 207.95 19.88 208.222 20.312C208.43 20.648 208.686 20.92 208.99 21.128C209.294 21.352 209.622 21.504 209.974 21.584C210.342 21.68 210.726 21.704 211.126 21.656C211.526 21.624 211.926 21.52 212.326 21.344C212.55 21.232 212.718 21.12 212.83 21.008C213.294 20.592 213.654 20.12 213.91 19.592C214.166 19.064 214.366 18.48 214.51 17.84ZM211.174 10.304C210.87 10.432 210.566 10.648 210.262 10.952C209.958 11.24 209.71 11.576 209.518 11.96C209.326 12.328 209.214 12.704 209.182 13.088C209.15 13.456 209.246 13.776 209.47 14.048C209.822 14.464 210.214 14.736 210.646 14.864C211.094 14.992 211.574 15.008 212.086 14.912C212.566 14.816 213.038 14.712 213.502 14.6C213.982 14.488 214.462 14.376 214.942 14.264C214.99 14.056 215.014 13.736 215.014 13.304C215.03 12.872 215.022 12.416 214.99 11.936C214.958 11.344 214.838 10.888 214.63 10.568C214.422 10.248 214.142 10.04 213.79 9.944C213.454 9.832 213.062 9.816 212.614 9.896C212.166 9.96 211.686 10.096 211.174 10.304ZM221.404 19.64C220.924 19.64 220.524 19.48 220.204 19.16C219.884 18.824 219.732 18.424 219.748 17.96C219.764 17.496 219.932 17.104 220.252 16.784C220.572 16.464 220.964 16.312 221.428 16.328C221.876 16.328 222.268 16.496 222.604 16.832C222.94 17.152 223.1 17.544 223.084 18.008C223.068 18.472 222.9 18.864 222.58 19.184C222.26 19.488 221.868 19.64 221.404 19.64ZM225.632 19.64C225.152 19.64 224.752 19.48 224.432 19.16C224.112 18.824 223.96 18.424 223.976 17.96C223.992 17.496 224.16 17.104 224.48 16.784C224.8 16.464 225.192 16.312 225.656 16.328C226.104 16.328 226.496 16.496 226.832 16.832C227.168 17.152 227.328 17.544 227.312 18.008C227.296 18.472 227.128 18.864 226.808 19.184C226.488 19.488 226.096 19.64 225.632 19.64ZM229.86 19.64C229.38 19.64 228.98 19.48 228.66 19.16C228.34 18.824 228.188 18.424 228.204 17.96C228.22 17.496 228.388 17.104 228.708 16.784C229.028 16.464 229.42 16.312 229.884 16.328C230.332 16.328 230.724 16.496 231.06 16.832C231.396 17.152 231.556 17.544 231.54 18.008C231.524 18.472 231.356 18.864 231.036 19.184C230.716 19.488 230.324 19.64 229.86 19.64Z" fill="black"/>
<path d="M42.4526 94.3085C41.5753 95.3112 40.7606 96.0945 40.0086 96.6585C38.3793 98.1625 36.6559 99.4472 34.8386 100.513C33.0839 101.578 31.1099 102.361 28.9166 102.863C25.5326 103.552 22.2426 103.489 19.0466 102.675C15.8506 101.797 12.9993 100.356 10.4926 98.3505C8.04859 96.2825 6.07459 93.7759 4.57059 90.8305C3.12926 87.8852 2.43993 84.6892 2.50259 81.2425C2.56526 76.5425 3.41126 72.1872 5.04059 68.1765C6.73259 64.1032 9.01993 60.5939 11.9026 57.6485C14.7853 54.7032 18.2006 52.4785 22.1486 50.9745C26.1593 49.4079 30.5459 48.7812 35.3086 49.0945C36.5619 49.2199 37.7839 49.4705 38.9746 49.8465C40.2279 50.2225 41.4499 50.7239 42.6406 51.3505C43.3926 51.7265 44.0819 52.0085 44.7086 52.1965C45.3979 52.3219 46.1813 52.2905 47.0586 52.1025C48.8759 51.6012 50.5366 51.8205 52.0406 52.7605C53.5446 53.6379 54.5473 54.9539 55.0486 56.7085C55.4873 58.0872 55.7066 59.6539 55.7066 61.4085C55.7693 64.2285 55.7693 67.0172 55.7066 69.7745C55.6439 72.4692 55.6439 75.2265 55.7066 78.0465C55.7693 80.8039 55.9573 83.4985 56.2706 86.1305C56.5839 88.7625 57.3046 91.3319 58.4326 93.8385C58.9339 94.9665 59.1219 96.2199 58.9966 97.5985C58.8086 100.356 57.3673 102.267 54.6726 103.333C52.1659 104.335 49.8786 103.959 47.8106 102.205C47.1839 101.641 46.6199 101.045 46.1186 100.419C45.6799 99.7292 45.2099 99.0399 44.7086 98.3505C44.3326 97.7239 43.9566 97.0972 43.5806 96.4705C43.2673 95.7812 42.8913 95.0605 42.4526 94.3085ZM27.8826 67.6125C25.0626 69.0539 22.9946 71.0279 21.6786 73.5345C20.3626 76.0412 19.7986 79.2685 19.9866 83.2165C20.0493 85.4099 20.6446 86.9452 21.7726 87.8225C22.9633 88.6999 24.3106 89.1072 25.8146 89.0445C27.3186 88.9192 28.8226 88.4492 30.3266 87.6345C31.8306 86.8199 32.9899 85.8172 33.8046 84.6265C35.0579 82.8719 36.0919 81.2425 36.9066 79.7385C37.7839 78.1719 38.5673 76.5739 39.2566 74.9445C40.3846 71.9992 40.6979 69.8372 40.1966 68.4585C39.6953 67.0172 38.7866 66.1085 37.4706 65.7325C36.1546 65.3565 34.5879 65.3879 32.7706 65.8265C31.0159 66.2652 29.3866 66.8605 27.8826 67.6125ZM79.5275 55.2045C80.2169 54.5779 80.8435 54.0139 81.4075 53.5125C82.0342 52.9485 82.6295 52.4159 83.1935 51.9145C85.3242 50.2225 87.6115 49.0005 90.0555 48.2485C92.5622 47.4339 95.0375 47.1205 97.4815 47.3085C99.9882 47.4965 102.401 48.1545 104.72 49.2825C107.101 50.3479 109.2 51.8832 111.018 53.8885C112.835 55.8939 114.214 58.0872 115.154 60.4685C116.094 62.7872 116.783 65.2625 117.222 67.8945C117.911 71.7172 118.224 75.5399 118.162 79.3625C118.099 83.1225 117.911 86.9139 117.598 90.7365C117.535 91.4259 117.472 92.1152 117.41 92.8045C117.41 93.4939 117.347 94.1832 117.222 94.8725C116.971 97.5672 115.812 99.9485 113.744 102.017C111.738 103.897 109.545 104.711 107.164 104.461C104.845 104.273 102.871 103.082 101.242 100.889C99.6122 98.5072 98.8915 95.9379 99.0795 93.1805C99.2049 90.1725 99.3302 87.2272 99.4555 84.3445C99.5809 81.4619 99.7062 78.5165 99.8315 75.5085C99.8942 74.2552 99.8942 73.0019 99.8315 71.7485C99.8315 70.4325 99.7689 69.1479 99.6435 67.8945C99.5182 66.8292 99.2675 65.8265 98.8915 64.8865C98.5782 63.9465 97.8262 63.2885 96.6355 62.9125C95.5075 62.5365 94.3795 62.5992 93.2515 63.1005C92.1862 63.5392 91.1522 64.2285 90.1495 65.1685C89.2095 66.1085 88.3322 67.2365 87.5175 68.5525C86.7028 69.8685 85.9822 71.2159 85.3555 72.5945C84.7915 73.9105 84.3529 75.2265 84.0395 76.5425C83.7889 77.7959 83.6948 78.8299 83.7575 79.6445C83.8202 81.2739 83.8829 82.5899 83.9455 83.5925C84.0082 84.5952 84.0709 85.5352 84.1335 86.4125C84.2588 87.2272 84.3528 88.1359 84.4155 89.1385C84.5408 90.1412 84.6662 91.4572 84.7915 93.0865C84.9168 95.0292 84.7288 96.8152 84.2275 98.4445C83.7262 100.074 82.6608 101.515 81.0315 102.769C79.4648 103.959 77.8668 104.555 76.2375 104.555C74.6082 104.617 73.1042 104.241 71.7255 103.427C70.3468 102.612 69.1562 101.515 68.1535 100.137C67.1508 98.6952 66.4928 97.0972 66.1795 95.3425C65.5528 92.2719 65.2082 89.2012 65.1455 86.1305C65.0828 82.9972 65.1455 79.8639 65.3335 76.7305C65.5842 73.5345 65.8975 70.3699 66.2735 67.2365C66.6495 64.0405 66.9315 60.8445 67.1195 57.6485C67.1822 57.1472 67.2448 56.6772 67.3075 56.2385C67.4328 55.7372 67.5895 55.2359 67.7775 54.7345C68.1535 53.7319 68.7175 52.9172 69.4695 52.2905C70.2842 51.6012 71.1615 51.1625 72.1015 50.9745C73.0415 50.7865 73.9815 50.8492 74.9215 51.1625C75.9242 51.4132 76.8015 51.9459 77.5535 52.7605C77.9295 53.0739 78.2428 53.4499 78.4935 53.8885C78.8068 54.2645 79.1515 54.7032 79.5275 55.2045ZM146.132 62.4425C146.821 61.6279 147.448 60.8759 148.012 60.1865C148.638 59.4972 149.234 58.8079 149.798 58.1185C152.68 54.4212 156.158 51.2879 160.232 48.7185C160.921 48.2172 161.673 47.7785 162.488 47.4025C163.302 47.0265 164.148 46.7445 165.026 46.5565C166.154 46.3059 167.25 46.3685 168.316 46.7445C169.381 47.0579 170.29 47.5905 171.042 48.3425C171.794 49.0945 172.326 50.0032 172.64 51.0685C172.953 52.1339 172.984 53.2619 172.734 54.4525C172.546 55.3299 172.232 56.1759 171.794 56.9905C171.418 57.7425 171.01 58.4945 170.572 59.2465C169.005 61.6905 167.282 64.0092 165.402 66.2025C163.522 68.3959 161.579 70.5265 159.574 72.5945C159.072 73.0959 158.54 73.6285 157.976 74.1925C157.474 74.6939 156.973 75.1952 156.472 75.6965C157.161 76.7619 157.788 77.7959 158.352 78.7985C158.978 79.7385 159.574 80.6785 160.138 81.6185C162.519 85.2532 164.18 89.3265 165.12 93.8385C165.182 94.0892 165.245 94.3399 165.308 94.5905C165.37 94.7785 165.433 94.9979 165.496 95.2485C165.684 96.7525 165.527 98.0999 165.026 99.2905C164.524 100.481 163.71 101.39 162.582 102.017C161.454 102.706 160.232 102.957 158.916 102.769C157.662 102.581 156.44 101.954 155.25 100.889C153.62 99.4472 152.116 97.9119 150.738 96.2825C149.422 94.6532 148.294 92.8359 147.354 90.8305C147.103 90.3292 146.821 89.8592 146.508 89.4205C146.257 88.9192 145.975 88.3552 145.662 87.7285C145.348 88.0419 145.035 88.3239 144.722 88.5745C144.408 88.7625 144.158 89.0132 143.97 89.3265C142.904 90.6425 141.839 91.9585 140.774 93.2745C139.771 94.5905 138.737 95.8752 137.672 97.1285C136.982 97.8805 136.293 98.6325 135.604 99.3845C134.914 100.137 134.162 100.826 133.348 101.453C132.345 102.142 131.311 102.549 130.246 102.675C129.18 102.8 128.084 102.518 126.956 101.829C126.016 101.202 125.295 100.325 124.794 99.1965C124.355 98.0685 124.292 96.8779 124.606 95.6245C124.919 94.4965 125.264 93.3999 125.64 92.3345C126.078 91.2065 126.58 90.1412 127.144 89.1385C128.46 86.9452 129.807 84.8145 131.186 82.7465C132.564 80.6159 133.943 78.4539 135.322 76.2605C135.698 75.7592 136.074 75.2579 136.45 74.7565C136.826 74.1925 137.264 73.6285 137.766 73.0645C137.39 72.4379 137.014 71.8425 136.638 71.2785C136.324 70.7145 135.98 70.1505 135.604 69.5865C134.664 68.2705 133.724 66.9545 132.784 65.6385C131.844 64.3225 130.935 63.0065 130.058 61.6905C129.682 61.1892 129.306 60.6565 128.93 60.0925C128.616 59.5285 128.334 58.9645 128.084 58.4005C127.582 57.3979 127.394 56.4579 127.52 55.5805C127.708 54.6405 128.178 53.7945 128.93 53.0425C129.682 52.2279 130.528 51.7579 131.468 51.6325C132.408 51.4445 133.348 51.5699 134.288 52.0085C135.854 52.7605 137.296 53.7319 138.612 54.9225C139.865 56.1132 141.087 57.3352 142.278 58.5885C143.531 59.8419 144.816 61.1265 146.132 62.4425ZM179.621 67.5185C179.683 64.8239 180.341 62.8499 181.595 61.5965C182.848 60.3432 184.227 59.7165 185.731 59.7165C187.297 59.7165 188.77 60.3119 190.149 61.5025C191.59 62.6932 192.499 64.3539 192.875 66.4845C193.313 68.6152 193.752 71.2159 194.191 74.2865C194.629 77.3572 194.911 80.4905 195.037 83.6865C195.225 86.8825 195.162 89.9532 194.849 92.8985C194.535 95.8439 193.877 98.2565 192.875 100.137C192.123 101.327 191.245 102.236 190.243 102.863C189.303 103.489 188.3 103.803 187.235 103.803C186.169 103.803 185.135 103.521 184.133 102.957C183.13 102.33 182.253 101.421 181.501 100.231C180.623 98.7892 179.997 97.3165 179.621 95.8125C179.307 94.2459 179.151 92.6479 179.151 91.0185C179.276 86.8825 179.339 82.9345 179.339 79.1745C179.401 75.3519 179.495 71.4665 179.621 67.5185ZM184.509 42.0445C186.514 42.0445 188.175 42.7339 189.491 44.1125C190.869 45.4912 191.527 47.1832 191.465 49.1885C191.465 51.1312 190.744 52.7919 189.303 54.1705C187.924 55.5492 186.263 56.2385 184.321 56.2385C182.378 56.1759 180.717 55.4239 179.339 53.9825C177.96 52.5412 177.271 50.8805 177.271 49.0005C177.333 46.9952 178.054 45.3345 179.433 44.0185C180.874 42.6399 182.566 41.9819 184.509 42.0445ZM253.135 74.5685C253.01 79.4565 252.258 83.8432 250.879 87.7285C249.501 91.5512 247.245 94.9665 244.111 97.9745C241.793 100.231 239.223 101.954 236.403 103.145C233.646 104.398 230.669 104.962 227.473 104.837C223.713 104.774 220.267 103.959 217.133 102.393C214.063 100.826 211.305 98.6012 208.861 95.7185C206.605 93.0865 204.913 90.1725 203.785 86.9765C202.657 83.7805 202.062 80.5219 201.999 77.2005C201.999 73.8792 202.532 70.6205 203.597 67.4245C204.663 64.2285 206.292 61.3145 208.485 58.6825C210.616 55.9879 212.997 53.7945 215.629 52.1025C218.261 50.3479 220.987 49.1572 223.807 48.5305C226.69 47.8412 229.604 47.7472 232.549 48.2485C235.495 48.7499 238.377 49.9092 241.197 51.7265C244.017 53.5439 246.399 55.8625 248.341 58.6825C250.284 61.4399 251.6 64.7299 252.289 68.5525C252.54 69.7432 252.697 70.9025 252.759 72.0305C252.885 73.0959 253.01 73.9419 253.135 74.5685ZM221.269 86.2245C223.024 88.5432 225.217 89.8905 227.849 90.2665C230.481 90.6425 232.957 89.9845 235.275 88.2925C237.406 86.6632 238.816 84.4699 239.505 81.7125C240.257 78.9552 240.289 76.2292 239.599 73.5345C239.161 71.8425 238.503 70.2759 237.625 68.8345C236.811 67.3305 235.839 66.0772 234.711 65.0745C233.583 64.0092 232.361 63.2259 231.045 62.7245C229.792 62.1605 228.539 61.9099 227.285 61.9725C225.28 62.1605 223.525 63.2572 222.021 65.2625C220.58 67.2679 219.515 69.5865 218.825 72.2185C218.199 74.8505 218.042 77.4825 218.355 80.1145C218.669 82.7465 219.64 84.7832 221.269 86.2245ZM288.405 103.709C283.893 103.709 279.976 103.019 276.655 101.641C273.334 100.262 270.545 98.4132 268.289 96.0945C266.033 93.7132 264.278 90.9559 263.025 87.8225C261.772 84.6892 260.926 81.3679 260.487 77.8585C260.048 74.3492 260.017 70.7459 260.393 67.0485C260.832 63.3512 261.552 59.7792 262.555 56.3325C262.743 55.8312 262.931 55.3612 263.119 54.9225C263.307 54.4839 263.558 54.0452 263.871 53.6065C264.686 52.3532 265.688 51.4759 266.879 50.9745C268.07 50.4732 269.323 50.3165 270.639 50.5045C273.584 51.0059 275.402 52.5099 276.091 55.0165C276.404 55.7059 276.592 56.4265 276.655 57.1785C276.718 57.9305 276.78 58.6512 276.843 59.3405C276.968 62.1605 277.031 64.9492 277.031 67.7065C277.094 70.4639 277.219 73.2525 277.407 76.0725C277.72 79.7699 278.723 82.8405 280.415 85.2845C282.107 87.7285 284.802 89.1699 288.499 89.6085C291.256 89.9845 293.575 89.7339 295.455 88.8565C297.398 87.9165 298.964 86.5692 300.155 84.8145C301.346 83.0599 302.192 81.0859 302.693 78.8925C303.194 76.6365 303.414 74.3805 303.351 72.1245C303.226 70.3072 302.975 68.5525 302.599 66.8605C302.223 65.1059 301.941 63.3199 301.753 61.5025C301.628 60.2492 301.502 58.9959 301.377 57.7425C301.314 56.4892 301.346 55.2359 301.471 53.9825C301.784 52.2905 302.536 50.9432 303.727 49.9405C304.98 48.9379 306.422 48.2799 308.051 47.9665C309.555 47.7785 311.028 48.0292 312.469 48.7185C313.973 49.4079 315.195 50.4419 316.135 51.8205C317.326 53.7005 318.046 55.6745 318.297 57.7425C318.548 59.7479 318.736 61.7845 318.861 63.8525C319.112 68.8032 318.704 73.6599 317.639 78.4225C316.574 83.1852 314.788 87.4465 312.281 91.2065C309.837 94.9665 306.61 98.0059 302.599 100.325C298.651 102.581 293.92 103.709 288.405 103.709ZM356.106 41.0105C358.487 42.0759 359.615 43.8932 359.49 46.4625C359.49 47.6532 359.176 48.6559 358.55 49.4705C357.923 50.2852 357.077 50.9432 356.012 51.4445C355.322 51.7579 354.664 52.0085 354.038 52.1965C353.411 52.3219 352.784 52.5412 352.158 52.8545C350.09 53.7319 348.398 54.7972 347.082 56.0505C345.766 57.2412 344.951 58.5259 344.638 59.9045C344.324 61.2832 344.544 62.7559 345.296 64.3225C346.11 65.8265 347.52 67.3619 349.526 68.9285C351.782 70.6205 353.944 72.6572 356.012 75.0385C358.08 77.4199 359.584 79.9892 360.524 82.7465C361.526 85.4412 361.746 88.1985 361.182 91.0185C360.68 93.8385 358.988 96.5332 356.106 99.1025C351.719 102.988 347.113 104.931 342.288 104.931C340.094 104.931 337.964 104.523 335.896 103.709C333.89 102.894 332.073 101.797 330.444 100.419C328.877 99.0399 327.592 97.4105 326.59 95.5305C325.587 93.6505 325.054 91.6139 324.992 89.4205C324.992 88.4179 325.211 87.4465 325.65 86.5065C326.151 85.5665 326.809 84.8145 327.624 84.2505C328.501 83.6239 329.472 83.2792 330.538 83.2165C331.666 83.0912 332.856 83.3732 334.11 84.0625C336.115 85.1279 338.026 86.0679 339.844 86.8825C340.846 87.2585 341.818 87.3525 342.758 87.1645C343.76 86.9765 344.575 86.6005 345.202 86.0365C345.828 85.4725 346.173 84.7519 346.236 83.8745C346.298 82.9972 345.954 82.0885 345.202 81.1485C344.512 80.2712 343.729 79.4879 342.852 78.7985C342.037 78.0465 341.191 77.3259 340.314 76.6365C339.624 76.0099 338.872 75.4459 338.058 74.9445C337.306 74.4432 336.585 73.8792 335.896 73.2525C330.82 68.9912 328.971 63.6645 330.35 57.2725C330.976 54.5152 332.167 51.9145 333.922 49.4705C335.739 46.9639 337.838 44.8959 340.22 43.2665C342.664 41.6372 345.264 40.5719 348.022 40.0705C350.779 39.5692 353.474 39.8825 356.106 41.0105Z" fill="white"/>
<path d="M74.8258 176.535C80.052 169.666 89.5713 168.695 93.6776 169.069C95.5441 168.695 101.442 169.666 110.103 176.535C120.929 185.121 116.449 222.451 114.209 229.73C111.97 237.01 101.89 245.783 86.7715 244.289C71.6527 242.796 61.7601 232.344 59.3336 223.944C56.9072 215.545 68.2929 185.121 74.8258 176.535Z" fill="black"/>
<path d="M289.174 176.535C283.948 169.666 274.429 168.695 270.322 169.069C268.456 168.695 262.558 169.666 253.897 176.535C243.071 185.121 247.551 222.451 249.791 229.73C252.03 237.01 262.11 245.783 277.229 244.289C292.347 242.796 302.24 232.344 304.666 223.944C307.093 215.545 295.707 185.121 289.174 176.535Z" fill="black"/>
<path d="M146.41 250.236L133.862 265.517C132.871 266.723 132.866 268.459 133.85 269.671C135.136 271.256 137.54 271.297 138.879 269.757L142.305 265.816C142.464 265.634 142.605 265.437 142.729 265.229L146.285 259.219C147.853 256.569 151.701 256.61 153.212 259.292L154.78 262.074C154.928 262.338 155.106 262.584 155.31 262.807L161.546 269.638C163.076 271.314 165.692 271.383 167.308 269.789L174.362 262.836C174.607 262.594 174.821 262.321 174.996 262.024L178.973 255.303C180.419 252.859 183.88 252.658 185.599 254.918L191.345 262.471L195.767 267.92C197.593 270.17 201.13 269.793 202.44 267.209L204.597 262.957C204.761 262.634 204.967 262.336 205.21 262.069L211.161 255.55C212.774 253.784 215.565 253.818 217.134 255.623L220.196 259.144C220.344 259.315 220.477 259.497 220.594 259.689L225.429 267.634C226.134 268.791 227.569 269.273 228.83 268.776C230.414 268.152 231.071 266.263 230.217 264.79L223.931 253.944C223.668 253.491 223.32 253.094 222.904 252.776L216.444 247.822C215.093 246.787 213.235 246.719 211.813 247.654L205.678 251.686C205.13 252.046 204.679 252.536 204.365 253.111L200.855 259.536C199.388 262.222 195.572 262.333 193.952 259.737L189.268 252.235L185.262 246.591C183.667 244.346 180.333 244.346 178.739 246.591L174.732 252.235L167.662 262.689C166.076 265.035 162.621 265.035 161.035 262.689L152.815 250.533C151.316 248.318 148.107 248.168 146.41 250.236Z" fill="black"/>
</svg>
